<!DOCTYPE svg PUBLIC "-//W3C//DTD SVG 1.1//EN" "http://www.w3.org/Graphics/SVG/1.1/DTD/svg11.dtd">
<!-- Uploaded to: SVG Repo, www.svgrepo.com, Transformed by: SVG Repo Mixer Tools -->
<svg width="87px" height="87px" viewBox="-7.44 -7.44 38.88 38.88" version="1.1" xml:space="preserve" xmlns="http://www.w3.org/2000/svg" xmlns:xlink="http://www.w3.org/1999/xlink" fill="#000000" transform="matrix(1, 0, 0, 1, 0, 0)rotate(0)">
<g id="SVGRepo_bgCarrier" stroke-width="0" transform="translate(0.6000000000000014,0.6000000000000014), scale(0.95)">
<rect x="-7.44" y="-7.44" width="38.88" height="38.88" rx="19.44" fill="#7ed0ec" strokewidth="0"/>
</g>
<g id="SVGRepo_tracerCarrier" stroke-linecap="round" stroke-linejoin="round" stroke="#CCCCCC" stroke-width="0.048"/>
<g id="SVGRepo_iconCarrier"> <style type="text/css"> .st0{opacity:0.2;fill:none;stroke:#000000;stroke-width:0.00024000000000000003;stroke-miterlimit:10;} </style> <g id="grid_system"/> <g id="_icons"> <path d="M22,13.5c0-2.3-1.8-4.2-4-4.5c-0.2-2.8-2.6-5-5.4-5H7.5C6,4,4.6,4.6,3.6,5.6C2.6,6.6,2,8,2,9.5c0,1.2,0.4,2.3,1,3.2l-1,3 c-0.1,0.4,0,0.8,0.3,1.1C2.5,16.9,2.8,17,3,17c0.2,0,0.3,0,0.4-0.1l4-2c0,0,0,0,0,0h1.8c0.2,0.5,0.4,1,0.7,1.4 c0.9,1.1,2.1,1.7,3.5,1.7h2.3l3.8,1.9C19.7,20,19.8,20,20,20c0.2,0,0.5-0.1,0.7-0.2c0.3-0.3,0.4-0.7,0.3-1.1L20.4,17 c0.1-0.1,0.2-0.2,0.3-0.3C21.5,15.8,22,14.7,22,13.5z M7.3,12.9c-0.2,0-0.4,0-0.6,0.1l-2.1,1l0.4-1.3c0.1-0.3,0-0.7-0.2-1 C4.3,11.1,4,10.3,4,9.5C4,8.5,4.4,7.7,5,7c0.7-0.7,1.5-1,2.4-1h5.1c1.8,0,3.2,1.3,3.4,3h-2.5c-1.2,0-2.3,0.5-3.2,1.3 c-0.7,0.7-1.1,1.5-1.3,2.4c0,0.1,0,0.1,0,0.2H7.5C7.4,12.9,7.4,12.9,7.3,12.9z M19.3,15.3c-0.2,0.2-0.4,0.3-0.6,0.4 c-0.4,0.2-0.6,0.7-0.5,1.2l0.1,0.2l-1.8-0.9C16.3,16,16.2,16,16,16h-2.5c-0.8,0-1.5-0.3-2-1c-0.3-0.4-0.5-0.8-0.5-1.2 c0-0.1,0-0.2,0-0.3c0-0.1,0-0.3,0-0.4c0.1-0.5,0.3-1,0.7-1.3c0.5-0.5,1.1-0.7,1.8-0.7H17h0.5c1.4,0,2.5,1.1,2.5,2.5 C20,14.2,19.7,14.8,19.3,15.3z"/> </g> </g>
</svg>