<?xml version="1.0" encoding="utf-8"?>
<!-- Generator: Adobe Illustrator 27.7.0, SVG Export Plug-In . SVG Version: 6.00 Build 0)  -->
<svg version="1.1" id="Camada_1" xmlns="http://www.w3.org/2000/svg" xmlns:xlink="http://www.w3.org/1999/xlink" x="0px" y="0px"
	 viewBox="0 0 1292.4 288.4" style="enable-background:new 0 0 1292.4 288.4;" xml:space="preserve">
<style type="text/css">
	.st0{fill:#0C4DA2;}
	.st1{fill:#FFFFFF;}
	.st2{fill:#FFF200;}
</style>
<g id="Elements">
	<g>
		<g>
			<g>
				<path class="st0" d="M393.5,150.2h-12l-4,14h-19.5l3.9-14h-8.7v-16.4h13.3l4-14.6h-11.4v-16.1h16l4.2-15h19.6l-4.2,15h11.9
					l4.2-15h19.5l-4.2,15h9.9v16.1h-14.4l-4,14.6H430v16.4h-17.1l-3.8,14h-19.4L393.5,150.2z M398.1,133.9l4.1-14.6h-12l-4.1,14.6
					H398.1z"/>
				<path class="st0" d="M469.4,129.1v36.7h-22.5V84.6h22.5v35.1l24-35.1h25.8l-28.1,39.8l29,41.4h-25.8L469.4,129.1z"/>
				<path class="st0" d="M553.1,84.6h27l29.8,81.1h-23.4l-5-14.8h-30.2l-5,14.8h-23.1L553.1,84.6z M542.4,69.7
					c0-6,4.5-10.2,10.2-10.2c6,0,10.2,4.2,10.2,10.2s-4.2,10.2-10.2,10.2C546.9,79.9,542.4,75.7,542.4,69.7z M566.3,107.3l-8.5,25
					H575l-8.5-25H566.3z M569.9,69.7c0-6,4.5-10.2,10.2-10.2c6,0,10.2,4.2,10.2,10.2s-4.2,10.2-10.2,10.2
					C574.4,79.9,569.9,75.7,569.9,69.7z"/>
				<path class="st0" d="M624.6,84.5l14.2,28.7l13.8-28.7H678l-28.1,51.3v29.9h-22.5v-30.3l-28.1-51L624.6,84.5L624.6,84.5z"/>
				<path class="st0" d="M726.3,105.3v60.5h-22.5v-60.5h-23.1V84.5h68.5v20.8H726.3z"/>
				<path class="st0" d="M770.2,84.6h27l29.8,81.1h-23.4l-5-14.8h-30.2l-5,14.8h-23.1L770.2,84.6z M759.5,69.7
					c0-6,4.5-10.2,10.2-10.2c6,0,10.2,4.2,10.2,10.2s-4.2,10.2-10.2,10.2C763.9,79.9,759.5,75.7,759.5,69.7z M783.4,107.3l-8.5,25
					H792l-8.5-25H783.4z M787,69.7c0-6,4.5-10.2,10.2-10.2c6,0,10.2,4.2,10.2,10.2s-4.2,10.2-10.2,10.2
					C791.4,79.9,787,75.7,787,69.7z"/>
				<path class="st0" d="M379.2,202.1h27l29.8,81.1h-23.4l-5-14.8h-30.2l-5,14.8h-23.1L379.2,202.1z M368.5,187.2
					c0-6,4.5-10.2,10.2-10.2c6,0,10.2,4.2,10.2,10.2s-4.2,10.2-10.2,10.2C373,197.4,368.5,193.2,368.5,187.2z M392.4,224.8l-8.5,25
					h17.2l-8.5-25H392.4z M396,187.2c0-6,4.5-10.2,10.2-10.2c6,0,10.2,4.2,10.2,10.2s-4.2,10.2-10.2,10.2
					C400.5,197.4,396,193.2,396,187.2z"/>
				<path class="st0" d="M468.9,202.1h27l29.8,81.1h-23.4l-5-14.8h-30.2l-5,14.8h-23.1L468.9,202.1z M458.2,187.2
					c0-6,4.5-10.2,10.2-10.2c6,0,10.2,4.2,10.2,10.2s-4.2,10.2-10.2,10.2C462.6,197.4,458.2,193.2,458.2,187.2z M482.1,224.8
					l-8.5,25h17.2l-8.5-25H482.1z M485.7,187.2c0-6,4.5-10.2,10.2-10.2c6,0,10.2,4.2,10.2,10.2s-4.2,10.2-10.2,10.2
					C490.2,197.4,485.7,193.2,485.7,187.2z"/>
				<path class="st0" d="M531.9,202h20.4l30.4,43.3V202h22.5v81.3h-20l-31.1-44.4v44.4h-22.2L531.9,202L531.9,202z"/>
				<path class="st0" d="M657,222.8v60.5h-22.5v-60.5h-23.1V202H680v20.8H657z"/>
				<path class="st0" d="M700.9,202.1h27l29.8,81.1h-23.4l-5-14.8h-30.2l-5,14.8H671L700.9,202.1z M690.2,187.2
					c0-6,4.5-10.2,10.2-10.2c6,0,10.2,4.2,10.2,10.2s-4.2,10.2-10.2,10.2C694.6,197.4,690.2,193.2,690.2,187.2z M714.1,224.8
					l-8.5,25h17.2l-8.5-25H714.1z M717.7,187.2c0-6,4.5-10.2,10.2-10.2c6,0,10.2,4.2,10.2,10.2s-4.2,10.2-10.2,10.2
					C722.2,197.4,717.7,193.2,717.7,187.2z"/>
				<path class="st0" d="M760.2,272.9l11.9-15.8c4.9,5.3,12.7,8.7,20.4,8.7c5,0,10-1.6,10-6.5c0-5.2-4.5-6.7-12.7-8.4
					c-17.3-3.5-27.3-10.3-27.3-24.8c0-16.6,15-25.6,32.8-25.6c12.4,0,22.5,3.5,29.8,10.7l-11.7,15c-6.2-4.7-12.1-6.9-17.9-6.9
					c-5.3,0-9.3,1.6-9.3,5.5s3.1,5.9,12.5,7.9c17.9,3.6,27.7,11.8,27.7,26.5c0,16.7-14.8,25.5-34.4,25.5
					C778.9,284.8,767.2,279.6,760.2,272.9z"/>
				<path class="st0" d="M835.2,202h22.6v81.3h-22.6V202z"/>
			</g>
		</g>
	</g>
	<g>
		<rect x="936.9" y="51.2" class="st1" width="355.5" height="237.2"/>
		<rect x="941.6" y="55.9" class="st0" width="346.2" height="227.8"/>
		<polygon class="st2" points="1114.4,77 1117.8,87.5 1128.9,87.4 1119.9,93.9 1123.4,104.4 1114.4,97.9 1105.6,104.4 1109,93.9 
			1100,87.4 1111.1,87.5 		"/>
		<polygon class="st2" points="1114.4,235.2 1117.8,245.7 1128.9,245.6 1119.9,252.1 1123.4,262.6 1114.4,256.1 1105.6,262.6 
			1109,252.1 1100,245.6 1111.1,245.7 		"/>
		<polygon class="st2" points="1075.1,87.5 1078.5,98 1089.5,98 1080.6,104.4 1084,114.9 1075.1,108.4 1066.2,114.9 1069.7,104.4 
			1060.7,98 1071.8,98 		"/>
		<polygon class="st2" points="1046.2,116.5 1049.5,127.1 1060.6,127 1051.6,133.5 1055,143.9 1046.2,137.4 1037.3,143.9 
			1040.7,133.5 1031.7,127 1042.8,127.1 		"/>
		<polygon class="st2" points="1035.5,156 1038.8,166.5 1049.9,166.4 1040.9,172.9 1044.3,183.4 1035.5,176.9 1026.6,183.4 
			1030,172.9 1021,166.4 1032.1,166.5 		"/>
		<polygon class="st2" points="1046,195.4 1049.4,206 1060.4,205.9 1051.5,212.4 1054.9,222.9 1046,216.3 1037.1,222.9 
			1040.6,212.4 1031.6,205.9 1042.7,206 		"/>
		<polygon class="st2" points="1075.1,224.5 1078.5,235 1089.5,234.9 1080.6,241.4 1084,251.9 1075.1,245.4 1066.2,251.9 
			1069.7,241.4 1060.7,234.9 1071.8,235 		"/>
		<polygon class="st2" points="1153.8,87.5 1150.5,98 1139.4,98 1148.4,104.4 1144.9,114.9 1153.8,108.4 1162.7,114.9 1159.3,104.4 
			1168.2,98 1157.2,98 		"/>
		<polygon class="st2" points="1182.8,116.5 1179.5,127.1 1168.4,127 1177.4,133.5 1173.9,143.9 1182.8,137.4 1191.7,143.9 
			1188.3,133.5 1197.2,127 1186.2,127.1 		"/>
		<polygon class="st2" points="1193.5,156 1190.1,166.5 1179.1,166.4 1188,172.9 1184.6,183.4 1193.5,176.9 1202.4,183.4 
			1199,172.9 1207.9,166.4 1196.9,166.5 		"/>
		<polygon class="st2" points="1182.9,195.4 1179.6,206 1168.5,205.9 1177.5,212.4 1174,222.9 1182.9,216.3 1191.8,222.9 
			1188.4,212.4 1197.3,205.9 1186.3,206 		"/>
		<polygon class="st2" points="1153.8,224.5 1150.5,235 1139.4,234.9 1148.4,241.4 1144.9,251.9 1153.8,245.4 1162.7,251.9 
			1159.3,241.4 1168.2,234.9 1157.2,235 		"/>
	</g>
	<path class="st0" d="M315.1,209.5L209.6,0L0,105.6l79,156.8H25.2V285h288.4v-22.6H210.3L315.1,209.5z M30.4,115.6l169.1-85.2
		l85.2,169.1l-124.8,62.8h-55.6L30.4,115.6z"/>
</g>
<g id="Clear_space">
</g>
</svg>
