<?xml version="1.0" encoding="utf-8"?>
<!-- Generator: Adobe Illustrator 27.7.0, SVG Export Plug-In . SVG Version: 6.00 Build 0)  -->
<svg version="1.1" id="Camada_1" xmlns="http://www.w3.org/2000/svg" xmlns:xlink="http://www.w3.org/1999/xlink" x="0px" y="0px"
	 viewBox="0 0 1175 290.6" style="enable-background:new 0 0 1175 290.6;" xml:space="preserve">
<style type="text/css">
	.st0{fill:#0C4DA2;}
	.st1{fill:#FFFFFF;}
	.st2{fill:#FFF200;}
</style>
<g id="Elements">
	<g>
		<path class="st0" d="M315.1,209.6L209.6,0L0,105.6l79,156.8H25.2V285h288.4v-22.6H210.3L315.1,209.6z M30.4,115.6l169.1-85.2
			l85.2,169.1l-124.8,62.8h-55.6L30.4,115.6z"/>
		<g>
			<path class="st0" d="M394,75.4h-12l-4,13.9h-19.5l3.9-13.9h-8.7V59h13.4l4-14.6h-11.4V28.4h16l4.2-15h19.6l-4.2,15h11.9l4.2-15
				h19.5l-4.2,15h9.9v16.1H422L418,59h12.4v16.4h-17.1l-3.8,13.9h-19.4L394,75.4z M398.6,59l4.1-14.6h-12L386.5,59H398.6z"/>
			<path class="st0" d="M448.8,59.1V9.6h22.5v49.6c0,7.3,5,12.1,12.6,12.1c7.7,0,12.6-4.8,12.6-12.1V9.6h22.4v49.5
				c0,20-14,33.2-35,33.2C462.7,92.3,448.8,79.1,448.8,59.1z"/>
			<path class="st0" d="M526.6,80.5l11.9-15.8c4.9,5.3,12.7,8.7,20.4,8.7c5,0,10-1.6,10-6.5c0-5.2-4.5-6.7-12.7-8.4
				c-17.3-3.5-27.3-10.3-27.3-24.8c0-16.6,15-25.6,32.8-25.6c12.4,0,22.5,3.5,29.8,10.7l-11.7,15c-6.2-4.7-12.1-6.9-17.9-6.9
				c-5.3,0-9.3,1.6-9.3,5.5s3.1,5.9,12.5,7.9c17.9,3.6,27.7,11.8,27.7,26.4c0,16.7-14.8,25.5-34.4,25.5
				C545.2,92.4,533.5,87.3,526.6,80.5z"/>
			<path class="st0" d="M623.7,39.9h33.7v19.4h-33.7v12.3h39.8v19.4h-61.8V9.7h60.7v19.5h-38.7V39.9z"/>
			<path class="st0" d="M374.7,106.4l14.2,28.7l13.8-28.7H428l-28.1,51.3v29.9h-22.5v-30.3l-28.1-51L374.7,106.4L374.7,106.4z"/>
			<path class="st0" d="M424.3,147.1c0-24.4,17.9-42.2,42.4-42.2s42.4,17.7,42.4,42c0,24.5-17.9,42.3-42.6,42.3
				C442.2,189.2,424.3,171.5,424.3,147.1z M486,147.1c0-12.4-8.1-21.5-19.2-21.5s-19.4,9-19.4,21.4c0,12.5,8.3,21.5,19.4,21.5
				C477.9,168.5,486,159.4,486,147.1z"/>
			<path class="st0" d="M518.6,155.9v-49.5H541V156c0,7.3,5,12.1,12.6,12.1c7.7,0,12.6-4.8,12.6-12.1v-49.6h22.4v49.5
				c0,20-14,33.2-35,33.2C532.4,189.1,518.6,175.9,518.6,155.9z"/>
			<path class="st0" d="M602.4,106.5h34.7c18.9,0,31.3,10.5,31.3,26.3c0,11.9-6.8,20.7-18.3,24.4l20,30.4h-25.6l-18.3-28.5h-1.3
				v28.5h-22.5L602.4,106.5L602.4,106.5z M636.5,141.7c5.7,0,9.4-3.4,9.4-8.5c0-4.9-3.7-8.3-9.4-8.3h-11.7v16.8L636.5,141.7
				L636.5,141.7z"/>
			<path class="st0" d="M349.9,203.3h23.6l17.1,56.8h0.2l17.4-56.8h23.3L404,284.4h-26.7L349.9,203.3z"/>
			<path class="st0" d="M432.1,243.9c0-24.4,17.9-42.2,42.4-42.2s42.4,17.7,42.4,42c0,24.5-17.9,42.3-42.6,42.3
				C450,286,432.1,268.3,432.1,243.9z M493.8,243.9c0-12.4-8.1-21.5-19.2-21.5s-19.4,9-19.4,21.4c0,12.5,8.3,21.5,19.4,21.5
				C485.7,265.3,493.8,256.2,493.8,243.9z"/>
			<path class="st0" d="M567,224v60.5h-22.5V224h-23.1v-20.8H590V224H567z"/>
			<path class="st0" d="M624.1,233.4h33.7v19.4h-33.7v12.3h39.8v19.4h-61.8v-81.2h60.7v19.5h-38.7V233.4z"/>
		</g>
		<g>
			<rect x="746.2" y="4.6" class="st1" width="428.8" height="286.1"/>
			<rect x="751.9" y="10.2" class="st0" width="417.6" height="274.8"/>
			<polygon class="st2" points="960.4,35.7 964.5,48.3 977.8,48.3 967,56.1 971.2,68.7 960.4,60.9 949.7,68.7 953.9,56.1 943,48.3 
				956.3,48.3 			"/>
			<polygon class="st2" points="960.4,226.5 964.5,239.1 977.8,239.1 967,246.9 971.2,259.5 960.4,251.7 949.7,259.5 953.9,246.9 
				943,239.1 956.3,239.1 			"/>
			<polygon class="st2" points="913,48.3 917,61 930.3,61 919.5,68.8 923.7,81.4 913,73.5 902.2,81.4 906.4,68.8 895.6,61 908.9,61 
							"/>
			<polygon class="st2" points="878,83.4 882.1,96.1 895.4,96 884.6,103.8 888.7,116.4 878,108.5 867.3,116.4 871.5,103.8 860.6,96 
				874,96.1 			"/>
			<polygon class="st2" points="865.1,131 869.2,143.6 882.5,143.6 871.7,151.4 875.8,164 865.1,156.1 854.4,164 858.6,151.4 
				847.7,143.6 861.1,143.6 			"/>
			<polygon class="st2" points="877.9,178.6 882,191.3 895.2,191.2 884.4,199 888.6,211.6 877.9,203.7 867.1,211.6 871.3,199 
				860.5,191.2 873.8,191.3 			"/>
			<polygon class="st2" points="913,213.6 917,226.2 930.3,226.2 919.5,233.9 923.7,246.6 913,238.8 902.2,246.6 906.4,233.9 
				895.6,226.2 908.9,226.2 			"/>
			<polygon class="st2" points="1007.9,48.3 1003.9,61 990.5,61 1001.4,68.8 997.2,81.4 1007.9,73.5 1018.6,81.4 1014.5,68.8 
				1025.3,61 1012,61 			"/>
			<polygon class="st2" points="1042.9,83.4 1038.8,96.1 1025.5,96 1036.3,103.8 1032.1,116.4 1042.9,108.5 1053.6,116.4 
				1049.4,103.8 1060.2,96 1046.9,96.1 			"/>
			<polygon class="st2" points="1055.8,131 1051.7,143.6 1038.4,143.6 1049.2,151.4 1045,164 1055.8,156.1 1066.5,164 1062.3,151.4 
				1073.1,143.6 1059.8,143.6 			"/>
			<polygon class="st2" points="1043,178.6 1038.9,191.3 1025.6,191.2 1036.5,199 1032.2,211.6 1043,203.7 1053.8,211.6 1049.6,199 
				1060.4,191.2 1047.1,191.3 			"/>
			<polygon class="st2" points="1007.9,213.6 1003.9,226.2 990.5,226.2 1001.4,233.9 997.2,246.6 1007.9,238.8 1018.6,246.6 
				1014.5,233.9 1025.3,226.2 1012,226.2 			"/>
		</g>
	</g>
</g>
<g id="Clear_space">
</g>
</svg>
