<?xml version="1.0" encoding="UTF-8"?>
<svg id="Camada_1" data-name="Camada 1" xmlns="http://www.w3.org/2000/svg" version="1.1" viewBox="0 0 1175 290.6">
  <defs>
    <style>
      .cls-1 {
        fill: #0c4da2;
      }

      .cls-1, .cls-2, .cls-3 {
        stroke-width: 0px;
      }

      .cls-2 {
        fill: #fff200;
      }

      .cls-3 {
        fill: #fff;
      }
    </style>
  </defs>
  <g id="Elements">
    <g>
      <path class="cls-3" d="M315.1,209.6L209.6,0,0,105.6l79,156.8H25.2v22.6h288.4v-22.6h-103.3l104.8-52.8ZM30.4,115.6L199.5,30.4l85.2,169.1-124.8,62.8h-55.6L30.4,115.6Z"/>
      <g>
        <path class="cls-3" d="M394,75.4h-12l-4,13.9h-19.5l3.9-13.9h-8.7v-16.4h13.4l4-14.6h-11.4v-16h16l4.2-15h19.6l-4.2,15h11.9l4.2-15h19.5l-4.2,15h9.9v16.1h-14.6l-4,14.5h12.4v16.4h-17.1l-3.8,13.9h-19.4l3.9-13.9ZM398.6,59l4.1-14.6h-12l-4.2,14.6h12.1Z"/>
        <path class="cls-3" d="M448.8,59.1V9.6h22.5v49.6c0,7.3,5,12.1,12.6,12.1s12.6-4.8,12.6-12.1V9.6h22.4v49.5c0,20-14,33.2-35,33.2s-35.1-13.2-35.1-33.2Z"/>
        <path class="cls-3" d="M526.6,80.5l11.9-15.8c4.9,5.3,12.7,8.7,20.4,8.7s10-1.6,10-6.5-4.5-6.7-12.7-8.4c-17.3-3.5-27.3-10.3-27.3-24.8s15-25.6,32.8-25.6,22.5,3.5,29.8,10.7l-11.7,15c-6.2-4.7-12.1-6.9-17.9-6.9s-9.3,1.6-9.3,5.5,3.1,5.9,12.5,7.9c17.9,3.6,27.7,11.8,27.7,26.4s-14.8,25.5-34.4,25.5c-13.2.2-24.9-4.9-31.8-11.7Z"/>
        <path class="cls-3" d="M623.7,39.9h33.7v19.4h-33.7v12.3h39.8v19.4h-61.8V9.7h60.7v19.5h-38.7v10.7Z"/>
        <path class="cls-3" d="M374.7,106.4l14.2,28.7,13.8-28.7h25.3l-28.1,51.3v29.9h-22.5v-30.3l-28.1-51h25.4Z"/>
        <path class="cls-3" d="M424.3,147.1c0-24.4,17.9-42.2,42.4-42.2s42.4,17.7,42.4,42-17.9,42.3-42.6,42.3c-24.3,0-42.2-17.7-42.2-42.1ZM486,147.1c0-12.4-8.1-21.5-19.2-21.5s-19.4,9-19.4,21.4,8.3,21.5,19.4,21.5,19.2-9.1,19.2-21.4Z"/>
        <path class="cls-3" d="M518.6,155.9v-49.5h22.4v49.6c0,7.3,5,12.1,12.6,12.1s12.6-4.8,12.6-12.1v-49.6h22.4v49.5c0,20-14,33.2-35,33.2-21.2,0-35-13.2-35-33.2Z"/>
        <path class="cls-3" d="M602.4,106.5h34.7c18.9,0,31.3,10.5,31.3,26.3s-6.8,20.7-18.3,24.4l20,30.4h-25.6l-18.3-28.5h-1.3v28.5h-22.5v-81.1h0ZM636.5,141.7c5.7,0,9.4-3.4,9.4-8.5s-3.7-8.3-9.4-8.3h-11.7v16.8h11.7Z"/>
        <path class="cls-3" d="M349.9,203.3h23.6l17.1,56.8h.2l17.4-56.8h23.3l-27.5,81.1h-26.7l-27.4-81.1Z"/>
        <path class="cls-3" d="M432.1,243.9c0-24.4,17.9-42.2,42.4-42.2s42.4,17.7,42.4,42-17.9,42.3-42.6,42.3-42.2-17.7-42.2-42.1ZM493.8,243.9c0-12.4-8.1-21.5-19.2-21.5s-19.4,9-19.4,21.4,8.3,21.5,19.4,21.5,19.2-9.1,19.2-21.4Z"/>
        <path class="cls-3" d="M567,224v60.5h-22.5v-60.5h-23.1v-20.8h68.6v20.8h-23Z"/>
        <path class="cls-3" d="M624.1,233.4h33.7v19.4h-33.7v12.3h39.8v19.4h-61.8v-81.2h60.7v19.5h-38.7v10.6Z"/>
      </g>
      <g>
        <rect class="cls-3" x="746.2" y="4.6" width="428.8" height="286.1"/>
        <rect class="cls-1" x="751.9" y="10.2" width="417.6" height="274.8"/>
        <polygon class="cls-2" points="960.4 35.7 964.5 48.3 977.8 48.3 967 56.1 971.2 68.7 960.4 60.9 949.7 68.7 953.9 56.1 943 48.3 956.3 48.3 960.4 35.7"/>
        <polygon class="cls-2" points="960.4 226.5 964.5 239.1 977.8 239.1 967 246.9 971.2 259.5 960.4 251.7 949.7 259.5 953.9 246.9 943 239.1 956.3 239.1 960.4 226.5"/>
        <polygon class="cls-2" points="913 48.3 917 61 930.3 61 919.5 68.8 923.7 81.4 913 73.5 902.2 81.4 906.4 68.8 895.6 61 908.9 61 913 48.3"/>
        <polygon class="cls-2" points="878 83.4 882.1 96.1 895.4 96 884.6 103.8 888.7 116.4 878 108.5 867.3 116.4 871.5 103.8 860.6 96 874 96.1 878 83.4"/>
        <polygon class="cls-2" points="865.1 131 869.2 143.6 882.5 143.6 871.7 151.4 875.8 164 865.1 156.1 854.4 164 858.6 151.4 847.7 143.6 861.1 143.6 865.1 131"/>
        <polygon class="cls-2" points="877.9 178.6 882 191.3 895.2 191.2 884.4 199 888.6 211.6 877.9 203.7 867.1 211.6 871.3 199 860.5 191.2 873.8 191.3 877.9 178.6"/>
        <polygon class="cls-2" points="913 213.6 917 226.2 930.3 226.2 919.5 233.9 923.7 246.6 913 238.8 902.2 246.6 906.4 233.9 895.6 226.2 908.9 226.2 913 213.6"/>
        <polygon class="cls-2" points="1007.9 48.3 1003.9 61 990.5 61 1001.4 68.8 997.2 81.4 1007.9 73.5 1018.6 81.4 1014.5 68.8 1025.3 61 1012 61 1007.9 48.3"/>
        <polygon class="cls-2" points="1042.9 83.4 1038.8 96.1 1025.5 96 1036.3 103.8 1032.1 116.4 1042.9 108.5 1053.6 116.4 1049.4 103.8 1060.2 96 1046.9 96.1 1042.9 83.4"/>
        <polygon class="cls-2" points="1055.8 131 1051.7 143.6 1038.4 143.6 1049.2 151.4 1045 164 1055.8 156.1 1066.5 164 1062.3 151.4 1073.1 143.6 1059.8 143.6 1055.8 131"/>
        <polygon class="cls-2" points="1043 178.6 1038.9 191.3 1025.6 191.2 1036.5 199 1032.2 211.6 1043 203.7 1053.8 211.6 1049.6 199 1060.4 191.2 1047.1 191.3 1043 178.6"/>
        <polygon class="cls-2" points="1007.9 213.6 1003.9 226.2 990.5 226.2 1001.4 233.9 997.2 246.6 1007.9 238.8 1018.6 246.6 1014.5 233.9 1025.3 226.2 1012 226.2 1007.9 213.6"/>
      </g>
    </g>
  </g>
</svg>