<?xml version="1.0" encoding="UTF-8"?>
<svg id="Layer_1" data-name="Layer 1" xmlns="http://www.w3.org/2000/svg" version="1.1" viewBox="0 0 825.4 112.3">
  <defs>
    <style>
      .cls-1 {
        fill: #000;
        stroke-width: 0px;
      }
    </style>
  </defs>
  <g>
    <path class="cls-1" d="M56.1,107c-28.1,0-50.9-22.8-50.9-50.9S28.1,5.2,56.1,5.2s50.9,22.8,50.9,50.9-22.8,50.9-50.9,50.9M56.1,0C25.2,0,0,25.2,0,56.1s25.2,56.1,56.1,56.1,56.1-25.2,56.1-56.1S87.1,0,56.1,0"/>
    <path class="cls-1" d="M61.3,57.9c-.7-1-1.9-1.5-3.1-1.5h-11.6c-.3,0-.5.4-.3.6l18.5,23.9c1.1,1.4,2.7,2.2,4.4,2.2h10.8c.3,0,.5-.4.3-.6l-19-24.5Z"/>
    <path class="cls-1" d="M68.9,38.2l9.8-8.6c.2-.2,0-.5-.2-.5h-14.3c-.2,0-.3.2-.2.4l4.4,8.6c0,.2.4.2.5,0"/>
    <path class="cls-1" d="M92.4,56.2c-5.2-1-9.4-5.2-10.4-10.4,0-.2-.3-.2-.4,0-1,5.2-5.2,9.4-10.4,10.4-.2,0-.2.3,0,.4,5.2,1,9.4,5.2,10.4,10.4,0,.2.3.2.4,0,1-5.2,5.2-9.4,10.4-10.4.2,0,.2-.3,0-.4"/>
    <path class="cls-1" d="M41.3,29.2h-12.2c-.3,0-.5.2-.5.5v26.1c0,.3.2.5.5.5h12.2c.3,0,.5-.2.5-.5v-26.1c0-.3-.2-.5-.5-.5"/>
    <path class="cls-1" d="M29.2,69.6c-.2-.3-.7-.1-.7.2v12.8c0,.3.2.5.5.5h9.6c.3,0,.5-.3.3-.6l-9.7-12.9Z"/>
    <path class="cls-1" d="M135.7,81.6h6.3V29.9h-6.3v-1.4h25.4v1.4h-7v24.1l17.6-17.6c1.7-1.6,3.5-3.4,3.5-4.7s-1-1.7-4-1.7h-1.4v-1.4h19.8v1.4h-2c-5.1,0-9.4,2.7-12.7,6l-11.1,11,22.8,34.8h5.6v1.4h-25.9v-1.4h6l-17.1-26.6-1.2,1.1v25.5h6.6v1.4h-24.9v-1.4Z"/>
    <path class="cls-1" d="M226.6,55.8c0-24.5-5.6-27.1-11.6-27.1s-11.6,2.6-11.6,27.1,2.6,27.1,11.6,27.1,11.6-7.4,11.6-27.1M215,27.3c14.6,0,24.6,13.3,24.6,28.5.3,14.5-10.9,28.5-24.6,28.5s-24.9-14-24.6-28.5c0-15.2,10-28.5,24.6-28.5"/>
    <path class="cls-1" d="M242.8,81.6h1.4c2.4,0,4.6-.9,4.6-5.6v-41.6l-3.4-4.6h-2.4v-1.4h15.9l29.2,37.5h.2v-31.7c0-2.9-1.9-4.4-5.3-4.4h-1.5v-1.4h14.6v1.4h-1.1c-3.5,0-5,2.2-5,4.2v49.8h-3.3l-36.1-47.1h-.2v39.6c0,4.4,1.7,5.2,6,5.2h.7v1.4h-14.6v-1.4Z"/>
    <path class="cls-1" d="M299.7,81.6h6.3V29.9h-6.3v-1.4h43.3v15.4h-1.4v-1.1c0-7-5.2-12.9-14.4-12.9h-9.1v23.7h5.3c5,0,7.7-2.9,7.7-10.2v-.8h1.4v24.5h-1.4v-1.8c0-5.5-2.6-10.2-7.7-10.2h-5.3v26.6h11.1c12.7,0,14.6-10.5,14.6-14.9v-1.1h1.4v17.4h-45.4v-1.4Z"/>
    <path class="cls-1" d="M353.8,62.5h1.4c1.9,8.7,7.7,20.4,18.2,20.4s11.1-4.1,11.1-10.9c0-16.9-30.9-4.7-30.9-28s6.8-16.6,17-16.6,10.3,4.2,13.8,4.2,2.5-2,2.5-3h1.4v17.4h-1.4c-1.9-8.2-6.3-17.2-16-17.2s-10.3,3.9-10.3,9.9c0,14.9,31.3,3.2,31.3,26.2s-6.8,19.5-17.7,19.5-13.1-4-16.2-4-2.9,1.4-2.9,2.9h-1.4v-20.6Z"/>
    <path class="cls-1" d="M406.2,81.6h7.2V29.9h-3.2c-10.1,0-12.6,7-13.8,15.6h-1.4v-17h48.8v17h-1.4c-1.2-8.5-3.7-15.6-13.8-15.6h-3.2v51.7h7.2v1.4h-26.5v-1.4Z"/>
  </g>
  <polygon class="cls-1" points="448 81.6 454.2 81.6 454.2 29.9 448 29.9 448 28.5 472.6 28.5 472.6 29.9 466.3 29.9 466.3 81.6 472.6 81.6 472.6 83 448 83 448 81.6"/>
  <g>
    <path class="cls-1" d="M476.9,81.6h6.3V29.9h-6.3v-1.4h44.1v15.4h-1.4v-1.2c0-6.7-5.7-12.8-16.6-12.8h-7.8v23.7h4.4c6.2,0,9.8-2.9,9.8-9.7v-1.4h1.4v24.5h-1.4v-1.4c0-7.2-3.1-10.6-10.7-10.6h-3.6v26.6h7.7v1.4h-26.1v-1.4Z"/>
    <path class="cls-1" d="M535.5,81.6h7.2V29.9h-3.2c-10.1,0-12.6,7-13.8,15.6h-1.4v-17h48.8v17h-1.4c-1.2-8.5-3.7-15.6-13.8-15.6h-3.2v51.7h7.2v1.4h-26.5v-1.4Z"/>
    <path class="cls-1" d="M576.7,81.6h6.3V29.9h-6.3v-1.4h43.3v15.4h-1.4v-1.1c0-7-5.2-12.9-14.4-12.9h-9.1v23.7h5.3c5,0,7.7-2.9,7.7-10.2v-.8h1.4v24.5h-1.4v-1.8c0-5.5-2.6-10.2-7.7-10.2h-5.3v26.6h11.1c12.7,0,14.6-10.5,14.6-14.9v-1.1h1.4v17.4h-45.4v-1.4Z"/>
    <path class="cls-1" d="M627.4,81.6h6.3V29.9h-6.3v-1.4h25.3v1.4h-7v51.7h8.9c13.7,0,16.8-6.7,16.8-15.6v-1.6h1.4v18.6h-45.4v-1.4Z"/>
    <path class="cls-1" d="M679.3,62.5h1.4c1.9,8.7,7.7,20.4,18.2,20.4s11.1-4.1,11.1-10.9c0-16.9-30.9-4.7-30.9-28s6.8-16.6,17-16.6,10.3,4.2,13.8,4.2,2.5-2,2.5-3h1.4v17.4h-1.4c-1.9-8.2-6.3-17.2-16-17.2s-10.3,3.9-10.3,9.9c0,14.9,31.3,3.2,31.3,26.2s-6.8,19.5-17.7,19.5-13.1-4-16.2-4-2.9,1.4-2.9,2.9h-1.4v-20.6Z"/>
    <path class="cls-1" d="M721.7,81.6h6.3V29.9h-6.3v-1.4h43.3v15.4h-1.4v-1.1c0-7-5.2-12.9-14.4-12.9h-9.1v23.7h5.3c5,0,7.7-2.9,7.7-10.2v-.8h1.4v24.5h-1.4v-1.8c0-5.5-2.6-10.2-7.7-10.2h-5.3v26.6h11.1c12.7,0,14.6-10.5,14.6-14.9v-1.1h1.4v17.4h-45.4v-1.4Z"/>
    <path class="cls-1" d="M772,81.6h1.4c2.4,0,4.6-.9,4.6-5.6v-41.6l-3.4-4.6h-2.4v-1.4h15.9l29.2,37.5h.2v-31.7c0-2.9-1.9-4.4-5.3-4.4h-1.5v-1.4h14.6v1.4h-1.1c-3.5,0-5,2.2-5,4.2v49.8h-3.2l-36.1-47.1h-.2v39.6c0,4.4,1.7,5.2,6,5.2h.7v1.4h-14.6v-1.4Z"/>
  </g>
</svg>