<?xml version="1.0" encoding="UTF-8"?>
<svg id="Layer_1" data-name="Layer 1" xmlns="http://www.w3.org/2000/svg" version="1.1" viewBox="0 0 746.8 112.3">
  <defs>
    <style>
      .cls-1 {
        fill: #fff;
        stroke-width: 0px;
      }
    </style>
  </defs>
  <g>
    <path class="cls-1" d="M135.8,81.7h6.2V30.2h-6.2v-1.4h25.3v1.4h-7v24l17.6-17.6c1.7-1.6,3.5-3.4,3.5-4.7s-1-1.7-4-1.7h-1.4v-1.4h19.7v1.4h-2c-5.1,0-9.3,2.7-12.6,5.9l-11,10.9,22.7,34.6h5.5v1.4h-25.8v-1.4h6l-17-26.4-1.2,1.1v25.3h6.5v1.4h-24.8v-1.4Z"/>
    <path class="cls-1" d="M226.2,55.9c0-24.3-5.6-27-11.5-27s-11.6,2.6-11.6,27,2.5,27,11.6,27,11.5-7.4,11.5-27M214.7,27.6c14.6,0,24.5,13.2,24.5,28.3.3,14.4-10.9,28.3-24.5,28.3s-24.8-13.9-24.5-28.3c0-15.1,9.9-28.3,24.5-28.3"/>
    <path class="cls-1" d="M242.3,81.7h1.4c2.4,0,4.6-.8,4.6-5.5v-41.4l-3.4-4.5h-2.4v-1.4h15.9l29,37.3h.2v-31.6c0-2.9-1.8-4.4-5.2-4.4h-1.5v-1.4h14.6v1.4h-1.1c-3.5,0-4.9,2.2-4.9,4.2v49.6h-3.2l-35.9-46.8h-.2v39.3c0,4.4,1.7,5.2,6,5.2h.7v1.4h-14.6v-1.4Z"/>
    <path class="cls-1" d="M298.9,81.7h6.2V30.2h-6.2v-1.4h43v15.3h-1.4v-1.1c0-7-5.2-12.9-14.3-12.9h-9.1v23.6h5.3c5,0,7.6-2.8,7.6-10.2v-.8h1.4v24.3h-1.4v-1.8c0-5.5-2.6-10.2-7.6-10.2h-5.3v26.5h11.1c12.6,0,14.5-10.5,14.5-14.9v-1.1h1.4v17.3h-45.2v-1.4Z"/>
    <path class="cls-1" d="M349.2,81.7h6.2V30.2h-6.2v-1.4h43v15.3h-1.4v-1.1c0-7-5.2-12.9-14.3-12.9h-9.1v23.6h5.3c5,0,7.6-2.8,7.6-10.2v-.8h1.4v24.3h-1.4v-1.8c0-5.5-2.6-10.2-7.6-10.2h-5.3v26.5h11.1c12.6,0,14.5-10.5,14.5-14.9v-1.1h1.4v17.3h-45.2v-1.4Z"/>
    <path class="cls-1" d="M399.2,81.7h1.4c2.4,0,4.6-.8,4.6-5.5v-41.4l-3.4-4.5h-2.4v-1.4h15.9l29,37.3h.2v-31.6c0-2.9-1.8-4.4-5.2-4.4h-1.5v-1.4h14.6v1.4h-1.1c-3.5,0-4.9,2.2-4.9,4.2v49.6h-3.2l-35.9-46.8h-.2v39.3c0,4.4,1.7,5.2,6,5.2h.7v1.4h-14.6v-1.4Z"/>
    <path class="cls-1" d="M478.1,62.6h1.4c1.8,8.7,7.7,20.3,18.1,20.3s11.1-4.1,11.1-10.9c0-16.8-30.7-4.7-30.7-27.9s6.8-16.6,16.9-16.6,10.2,4.2,13.7,4.2,2.5-2,2.5-3h1.4v17.3h-1.4c-1.9-8.2-6.2-17.1-15.9-17.1s-10.2,3.9-10.2,9.9c0,14.9,31.2,3.2,31.2,26s-6.8,19.4-17.6,19.4-13-4-16.1-4-2.8,1.4-2.8,2.8h-1.4v-20.5Z"/>
    <path class="cls-1" d="M549,13.1c2.7,0,4.9,2.2,4.9,4.9s-2.2,4.8-4.9,4.8-4.9-2.2-4.9-4.8,2.2-4.9,4.9-4.9M535.6,13.1c2.7,0,4.9,2.2,4.9,4.9s-2.2,4.8-4.9,4.8-4.9-2.2-4.9-4.8,2.2-4.9,4.9-4.9M544.1,64.2l-6.7-19.5h-.2l-6.9,19.5h13.7ZM517.5,81.7h1c2.9-.2,4.3-2.1,5.2-4.6l17.9-49.4h1.2l20.6,54.1h3.8v1.4h-22.9v-1.4h6.2l-5.6-16h-14.9l-3.7,10.9c-.2.6-.5,1.5-.5,2.3,0,2.5,2.2,2.8,3.7,2.8h2.2v1.4h-13.9v-1.4Z"/>
    <path class="cls-1" d="M601.6,13.1c2.7,0,4.9,2.2,4.9,4.9s-2.2,4.8-4.9,4.8-4.9-2.2-4.9-4.8,2.2-4.9,4.9-4.9M588.2,13.1c2.7,0,4.9,2.2,4.9,4.9s-2.2,4.8-4.9,4.8-4.9-2.2-4.9-4.8,2.2-4.9,4.9-4.9M596.6,64.2l-6.7-19.5h-.2l-6.9,19.5h13.7ZM570,81.7h1c2.9-.2,4.3-2.1,5.2-4.6l17.9-49.4h1.2l20.6,54.1h3.8v1.4h-22.9v-1.4h6.2l-5.6-16h-14.9l-3.7,10.9c-.2.6-.5,1.5-.5,2.3,0,2.5,2.2,2.8,3.7,2.8h2.2v1.4h-13.9v-1.4Z"/>
    <path class="cls-1" d="M628.2,81.7h7.2V30.2h-3.2c-10,0-12.6,7-13.7,15.5h-1.4v-16.9h48.5v16.9h-1.4c-1.2-8.5-3.7-15.5-13.7-15.5h-3.2v51.4h7.2v1.4h-26.3v-1.4Z"/>
  </g>
  <polygon class="cls-1" points="669.8 81.7 676 81.7 676 30.2 669.8 30.2 669.8 28.8 694.3 28.8 694.3 30.2 688 30.2 688 81.7 694.3 81.7 694.3 83 669.8 83 669.8 81.7"/>
  <g>
    <path class="cls-1" d="M729,13.1c2.7,0,4.9,2.2,4.9,4.9s-2.2,4.8-4.9,4.8-4.9-2.2-4.9-4.8,2.2-4.9,4.9-4.9M733.8,55.9c0-24.3-5.6-27-11.5-27s-11.6,2.6-11.6,27,2.5,27,11.6,27,11.5-7.4,11.5-27M715.6,13.1c2.7,0,4.9,2.2,4.9,4.9s-2.2,4.8-4.9,4.8-4.9-2.2-4.9-4.8,2.2-4.9,4.9-4.9M722.3,27.6c14.6,0,24.5,13.2,24.5,28.3.3,14.4-10.9,28.3-24.5,28.3s-24.8-13.9-24.5-28.3c0-15.1,9.9-28.3,24.5-28.3"/>
    <path class="cls-1" d="M56.1,107c-28.1,0-50.9-22.8-50.9-50.9S28.1,5.2,56.1,5.2s50.9,22.8,50.9,50.9-22.8,50.9-50.9,50.9M56.1,0C25.2,0,0,25.2,0,56.1s25.2,56.1,56.1,56.1,56.1-25.2,56.1-56.1S87.1,0,56.1,0"/>
    <path class="cls-1" d="M61.3,57.9c-.7-1-1.9-1.5-3.1-1.5h-11.6c-.3,0-.5.4-.3.6l18.5,23.9c1.1,1.4,2.7,2.2,4.4,2.2h10.8c.3,0,.5-.4.3-.6l-19-24.5Z"/>
    <path class="cls-1" d="M68.9,38.2l9.8-8.6c.2-.2,0-.5-.2-.5h-14.3c-.2,0-.3.2-.2.4l4.4,8.6c0,.2.4.2.5,0"/>
    <path class="cls-1" d="M92.4,56.2c-5.2-1-9.4-5.2-10.4-10.4,0-.2-.3-.2-.4,0-1,5.2-5.2,9.4-10.4,10.4-.2,0-.2.3,0,.4,5.2,1,9.4,5.2,10.4,10.4,0,.2.3.2.4,0,1-5.2,5.2-9.4,10.4-10.4.2,0,.2-.3,0-.4"/>
    <path class="cls-1" d="M41.3,29.2h-12.2c-.3,0-.5.2-.5.5v26.1c0,.3.2.5.5.5h12.2c.3,0,.5-.2.5-.5v-26.1c0-.3-.2-.5-.5-.5"/>
    <path class="cls-1" d="M29.2,69.6c-.2-.3-.7-.1-.7.2v12.8c0,.3.2.5.5.5h9.6c.3,0,.5-.3.3-.6l-9.7-12.9Z"/>
  </g>
</svg>