<?xml version="1.0" encoding="utf-8"?>
<!-- Generator: Adobe Illustrator 27.7.0, SVG Export Plug-In . SVG Version: 6.00 Build 0)  -->
<svg version="1.1" id="Camada_1" xmlns="http://www.w3.org/2000/svg" xmlns:xlink="http://www.w3.org/1999/xlink" x="0px" y="0px"
	 viewBox="0 0 1375.1 289.5" style="enable-background:new 0 0 1375.1 289.5;" xml:space="preserve">
<style type="text/css">
	.st0{fill:#0C4DA2;}
	.st1{fill:#FFFFFF;}
	.st2{fill:#FFF200;}
</style>
<g id="Elements">
	<g>
		<g>
			<g>
				<path class="st0" d="M389.6,151.4h-12l-4,14h-19.5l3.9-14h-8.7V135h13.3l4-14.6h-11.4v-16.1h16l4.2-15H395l-4.2,15h11.9l4.2-15
					h19.5l-4.2,15h9.9v16.1h-14.4l-4,14.6H426v16.4h-17.1l-3.8,14h-19.4L389.6,151.4z M394.1,135l4.1-14.6h-12l-4.1,14.6H394.1z"/>
				<path class="st0" d="M461.1,85.7h27l29.8,81.1h-23.4l-5-14.8h-30.2l-5,14.8h-23.1L461.1,85.7z M474.3,108.4l-8.5,25H483l-8.5-25
					H474.3z"/>
				<path class="st0" d="M524.1,85.6h20.4l30.4,43.3V85.6h22.5v81.3h-20l-31.1-44.4v44.4h-22.2V85.6z"/>
				<path class="st0" d="M603.6,85.7h23.6l17.1,56.8h0.2l17.4-56.8h23.3l-27.5,81.1H631L603.6,85.7z"/>
				<path class="st0" d="M708,85.7h27l29.8,81.1h-23.4l-5.1-14.8h-30.2l-5,14.8H678L708,85.7z M697.3,70.8c0-6,4.5-10.2,10.2-10.2
					c6,0,10.2,4.2,10.2,10.2S713.5,81,707.5,81C701.7,81,697.3,76.8,697.3,70.8z M721.2,108.4l-8.5,25h17.2l-8.5-25H721.2z
					 M724.8,70.8c0-6,4.5-10.2,10.2-10.2c6,0,10.2,4.2,10.2,10.2S741,81,735,81C729.2,81,724.8,76.8,724.8,70.8z"/>
				<path class="st0" d="M771,85.6h20.4l30.4,43.3V85.6h22.5v81.3h-20l-31.1-44.4v44.4H771V85.6z"/>
				<path class="st0" d="M858.9,85.7h34.6c23.4,0,40.5,17.1,40.5,40.3c0,23.7-17.1,40.9-40.5,40.9h-34.6L858.9,85.7L858.9,85.7z
					 M911.1,126.1c0-11.3-7.8-19.7-18.5-19.7h-11.2v39.9h11.2C903.1,146.3,911.1,137.8,911.1,126.1z"/>
				<path class="st0" d="M352.7,203.2h34.6c23.4,0,40.5,17.1,40.5,40.3c0,23.7-17.1,40.9-40.5,40.9h-34.6V203.2L352.7,203.2z
					 M404.8,243.6c0-11.3-7.8-19.7-18.5-19.7h-11.2v39.9h11.2C396.9,263.8,404.8,255.3,404.8,243.6z"/>
				<path class="st0" d="M438.4,203.1H461v81.3h-22.6V203.1z"/>
				<path class="st0" d="M475.3,203.1h20.4l30.4,43.3v-43.3h22.5v81.3h-20L497.6,240v44.4h-22.2V203.1z"/>
				<path class="st0" d="M593.9,203.2h34.7c18.9,0,31.3,10.5,31.3,26.3c0,11.9-6.8,20.7-18.3,24.4l20,30.4H636l-18.3-28.5h-1.3v28.5
					h-22.5L593.9,203.2L593.9,203.2z M628,238.4c5.7,0,9.4-3.4,9.4-8.5c0-4.9-3.7-8.3-9.4-8.3h-11.7v16.8L628,238.4L628,238.4z"/>
				<path class="st0" d="M665.7,243.9c0-24.4,17.9-42.2,42.4-42.2s42.4,17.7,42.4,42c0,24.5-17.9,42.3-42.6,42.3
					C683.6,285.9,665.7,268.3,665.7,243.9z M684.1,188.3c0-6,4.5-10.2,10.2-10.2c6,0,10.2,4.2,10.2,10.2s-4.2,10.2-10.2,10.2
					C688.6,198.5,684.1,194.3,684.1,188.3z M727.4,243.9c0-12.4-8.1-21.5-19.2-21.5s-19.4,9-19.4,21.4c0,12.5,8.3,21.5,19.4,21.5
					C719.3,265.2,727.4,256.1,727.4,243.9z M711.6,188.3c0-6,4.5-10.2,10.2-10.2c6,0,10.2,4.2,10.2,10.2s-4.2,10.2-10.2,10.2
					C716.1,198.5,711.6,194.3,711.6,188.3z"/>
				<path class="st0" d="M754.9,274l11.9-15.8c4.9,5.3,12.7,8.7,20.4,8.7c5,0,10-1.6,10-6.5c0-5.2-4.5-6.7-12.7-8.4
					c-17.3-3.5-27.3-10.3-27.3-24.8c0-16.6,15-25.6,32.8-25.6c12.4,0,22.5,3.5,29.8,10.7l-11.7,15c-6.2-4.7-12.1-6.9-17.9-6.9
					c-5.3,0-9.3,1.6-9.3,5.5s3.1,5.9,12.5,7.9c17.9,3.6,27.7,11.8,27.7,26.5c0,16.7-14.8,25.5-34.4,25.5
					C773.6,285.9,761.9,280.8,754.9,274z"/>
				<path class="st0" d="M868.9,223.9v60.5h-22.5v-60.5h-23.1v-20.8h68.5v20.8H868.9z"/>
			</g>
		</g>
	</g>
	<g>
		<rect x="1019.7" y="52.3" class="st1" width="355.5" height="237.2"/>
		<rect x="1024.3" y="57" class="st0" width="346.2" height="227.8"/>
		<polygon class="st2" points="1197.2,78.1 1200.6,88.6 1211.6,88.6 1202.7,95 1206.1,105.5 1197.2,99 1188.3,105.5 1191.8,95 
			1182.8,88.6 1193.8,88.6 		"/>
		<polygon class="st2" points="1197.2,236.3 1200.6,246.8 1211.6,246.7 1202.7,253.2 1206.1,263.7 1197.2,257.2 1188.3,263.7 
			1191.8,253.2 1182.8,246.7 1193.8,246.8 		"/>
		<polygon class="st2" points="1157.9,88.6 1161.2,99.1 1172.3,99.1 1163.3,105.5 1166.8,116 1157.9,109.5 1149,116 1152.4,105.5 
			1143.5,99.1 1154.5,99.1 		"/>
		<polygon class="st2" points="1128.9,117.6 1132.3,128.2 1143.3,128.1 1134.3,134.6 1137.8,145 1128.9,138.5 1120,145 
			1123.5,134.6 1114.5,128.1 1125.6,128.2 		"/>
		<polygon class="st2" points="1118.2,157.1 1121.6,167.6 1132.6,167.5 1123.7,174 1127.1,184.5 1118.2,178 1109.3,184.5 
			1112.8,174 1103.8,167.5 1114.9,167.6 		"/>
		<polygon class="st2" points="1128.8,196.5 1132.2,207.1 1143.2,207 1134.2,213.5 1137.7,224 1128.8,217.4 1119.9,224 
			1123.4,213.5 1114.4,207 1125.4,207.1 		"/>
		<polygon class="st2" points="1157.9,225.6 1161.2,236.1 1172.3,236 1163.3,242.5 1166.8,253 1157.9,246.5 1149,253 1152.4,242.5 
			1143.5,236 1154.5,236.1 		"/>
		<polygon class="st2" points="1236.6,88.6 1233.2,99.1 1222.2,99.1 1231.2,105.5 1227.7,116 1236.6,109.5 1245.5,116 1242.1,105.5 
			1251,99.1 1240,99.1 		"/>
		<polygon class="st2" points="1265.6,117.6 1262.2,128.2 1251.2,128.1 1260.1,134.6 1256.7,145 1265.6,138.5 1274.5,145 
			1271,134.6 1280,128.1 1268.9,128.2 		"/>
		<polygon class="st2" points="1276.3,157.1 1272.9,167.6 1261.8,167.5 1270.8,174 1267.3,184.5 1276.3,178 1285.2,184.5 
			1281.7,174 1290.7,167.5 1279.6,167.6 		"/>
		<polygon class="st2" points="1265.7,196.5 1262.3,207.1 1251.3,207 1260.3,213.5 1256.8,224 1265.7,217.4 1274.6,224 
			1271.1,213.5 1280.1,207 1269.1,207.1 		"/>
		<polygon class="st2" points="1236.6,225.6 1233.2,236.1 1222.2,236 1231.2,242.5 1227.7,253 1236.6,246.5 1245.5,253 
			1242.1,242.5 1251,236 1240,236.1 		"/>
	</g>
	<path class="st0" d="M315.1,209.5L209.6,0L0,105.6l79,156.8H25.2V285h288.4v-22.6H210.3L315.1,209.5z M30.4,115.6l169.1-85.2
		l85.2,169.1l-124.8,62.8h-55.6L30.4,115.6z"/>
</g>
<g id="Clear_space">
</g>
</svg>
