<?xml version="1.0" encoding="UTF-8"?>
<svg id="Camada_1" data-name="Camada 1" xmlns="http://www.w3.org/2000/svg" version="1.1" viewBox="0 0 1375.1 289.5">
  <defs>
    <style>
      .cls-1 {
        fill: #0c4da2;
      }

      .cls-1, .cls-2, .cls-3 {
        stroke-width: 0px;
      }

      .cls-2 {
        fill: #fff200;
      }

      .cls-3 {
        fill: #fff;
      }
    </style>
  </defs>
  <g id="Elements">
    <g>
      <path class="cls-3" d="M389.6,151.4h-12l-4,14h-19.5l3.9-14h-8.7v-16.4h13.3l4-14.6h-11.4v-16.1h16l4.2-15h19.6l-4.2,15h11.9l4.2-15h19.5l-4.2,15h9.9v16.1h-14.4l-4,14.6h12.3v16.4h-17.1l-3.8,14h-19.4l3.9-14ZM394.1,135l4.1-14.6h-12l-4.1,14.6h12Z"/>
      <path class="cls-3" d="M461.1,85.7h27l29.8,81.1h-23.4l-5-14.8h-30.2l-5,14.8h-23.1l29.9-81.1ZM474.3,108.4l-8.5,25h17.2l-8.5-25s-.2,0-.2,0Z"/>
      <path class="cls-3" d="M524.1,85.6h20.4l30.4,43.3v-43.3h22.5v81.3h-20l-31.1-44.4v44.4h-22.2v-81.3h0Z"/>
      <path class="cls-3" d="M603.6,85.7h23.6l17.1,56.8h.2l17.4-56.8h23.3l-27.5,81.1h-26.7l-27.4-81.1Z"/>
      <path class="cls-3" d="M708,85.7h27l29.8,81.1h-23.4l-5.1-14.8h-30.2l-5,14.8h-23.1l30-81.1ZM697.3,70.8c0-6,4.5-10.2,10.2-10.2s10.2,4.2,10.2,10.2-4.2,10.2-10.2,10.2-10.2-4.2-10.2-10.2ZM721.2,108.4l-8.5,25h17.2l-8.5-25s-.2,0-.2,0ZM724.8,70.8c0-6,4.5-10.2,10.2-10.2s10.2,4.2,10.2,10.2-4.2,10.2-10.2,10.2-10.2-4.2-10.2-10.2Z"/>
      <path class="cls-3" d="M771,85.6h20.4l30.4,43.3v-43.3h22.5v81.3h-20l-31.1-44.4v44.4h-22.2v-81.3Z"/>
      <path class="cls-3" d="M858.9,85.7h34.6c23.4,0,40.5,17.1,40.5,40.3s-17.1,40.9-40.5,40.9h-34.6v-81.2h0ZM911.1,126.1c0-11.3-7.8-19.7-18.5-19.7h-11.2v39.9h11.2c10.5,0,18.5-8.5,18.5-20.2Z"/>
      <path class="cls-3" d="M352.7,203.2h34.6c23.4,0,40.5,17.1,40.5,40.3s-17.1,40.9-40.5,40.9h-34.6v-81.2h0ZM404.8,243.6c0-11.3-7.8-19.7-18.5-19.7h-11.2v39.9h11.2c10.6,0,18.5-8.5,18.5-20.2Z"/>
      <path class="cls-3" d="M438.4,203.1h22.6v81.3h-22.6v-81.3Z"/>
      <path class="cls-3" d="M475.3,203.1h20.4l30.4,43.3v-43.3h22.5v81.3h-20l-31-44.4v44.4h-22.2v-81.3h-.1Z"/>
      <path class="cls-3" d="M593.9,203.2h34.7c18.9,0,31.3,10.5,31.3,26.3s-6.8,20.7-18.3,24.4l20,30.4h-25.6l-18.3-28.5h-1.3v28.5h-22.5v-81.1h0ZM628,238.4c5.7,0,9.4-3.4,9.4-8.5s-3.7-8.3-9.4-8.3h-11.7v16.8h11.7Z"/>
      <path class="cls-3" d="M665.7,243.9c0-24.4,17.9-42.2,42.4-42.2s42.4,17.7,42.4,42-17.9,42.3-42.6,42.3c-24.3-.1-42.2-17.7-42.2-42.1ZM684.1,188.3c0-6,4.5-10.2,10.2-10.2s10.2,4.2,10.2,10.2-4.2,10.2-10.2,10.2-10.2-4.2-10.2-10.2ZM727.4,243.9c0-12.4-8.1-21.5-19.2-21.5s-19.4,9-19.4,21.4,8.3,21.5,19.4,21.5c11.1,0,19.2-9.2,19.2-21.4ZM711.6,188.3c0-6,4.5-10.2,10.2-10.2s10.2,4.2,10.2,10.2-4.2,10.2-10.2,10.2-10.2-4.2-10.2-10.2Z"/>
      <path class="cls-3" d="M754.9,274l11.9-15.8c4.9,5.3,12.7,8.7,20.4,8.7s10-1.6,10-6.5-4.5-6.7-12.7-8.4c-17.3-3.5-27.3-10.3-27.3-24.8s15-25.6,32.8-25.6,22.5,3.5,29.8,10.7l-11.7,15c-6.2-4.7-12.1-6.9-17.9-6.9s-9.3,1.6-9.3,5.5,3.1,5.9,12.5,7.9c17.9,3.6,27.7,11.8,27.7,26.5s-14.8,25.5-34.4,25.5c-13.1,0-24.8-5-31.8-11.8Z"/>
      <path class="cls-3" d="M868.9,223.9v60.5h-22.5v-60.5h-23.1v-20.8h68.5v20.8h-22.9Z"/>
    </g>
    <g>
      <rect class="cls-3" x="1019.7" y="52.3" width="355.5" height="237.2"/>
      <rect class="cls-1" x="1024.3" y="57" width="346.2" height="227.8"/>
      <polygon class="cls-2" points="1197.2 78.1 1200.6 88.6 1211.6 88.6 1202.7 95 1206.1 105.5 1197.2 99 1188.3 105.5 1191.8 95 1182.8 88.6 1193.8 88.6 1197.2 78.1"/>
      <polygon class="cls-2" points="1197.2 236.3 1200.6 246.8 1211.6 246.7 1202.7 253.2 1206.1 263.7 1197.2 257.2 1188.3 263.7 1191.8 253.2 1182.8 246.7 1193.8 246.8 1197.2 236.3"/>
      <polygon class="cls-2" points="1157.9 88.6 1161.2 99.1 1172.3 99.1 1163.3 105.5 1166.8 116 1157.9 109.5 1149 116 1152.4 105.5 1143.5 99.1 1154.5 99.1 1157.9 88.6"/>
      <polygon class="cls-2" points="1128.9 117.6 1132.3 128.2 1143.3 128.1 1134.3 134.6 1137.8 145 1128.9 138.5 1120 145 1123.5 134.6 1114.5 128.1 1125.6 128.2 1128.9 117.6"/>
      <polygon class="cls-2" points="1118.2 157.1 1121.6 167.6 1132.6 167.5 1123.7 174 1127.1 184.5 1118.2 178 1109.3 184.5 1112.8 174 1103.8 167.5 1114.9 167.6 1118.2 157.1"/>
      <polygon class="cls-2" points="1128.8 196.5 1132.2 207.1 1143.2 207 1134.2 213.5 1137.7 224 1128.8 217.4 1119.9 224 1123.4 213.5 1114.4 207 1125.4 207.1 1128.8 196.5"/>
      <polygon class="cls-2" points="1157.9 225.6 1161.2 236.1 1172.3 236 1163.3 242.5 1166.8 253 1157.9 246.5 1149 253 1152.4 242.5 1143.5 236 1154.5 236.1 1157.9 225.6"/>
      <polygon class="cls-2" points="1236.6 88.6 1233.2 99.1 1222.2 99.1 1231.2 105.5 1227.7 116 1236.6 109.5 1245.5 116 1242.1 105.5 1251 99.1 1240 99.1 1236.6 88.6"/>
      <polygon class="cls-2" points="1265.6 117.6 1262.2 128.2 1251.2 128.1 1260.1 134.6 1256.7 145 1265.6 138.5 1274.5 145 1271 134.6 1280 128.1 1268.9 128.2 1265.6 117.6"/>
      <polygon class="cls-2" points="1276.3 157.1 1272.9 167.6 1261.8 167.5 1270.8 174 1267.3 184.5 1276.3 178 1285.2 184.5 1281.7 174 1290.7 167.5 1279.6 167.6 1276.3 157.1"/>
      <polygon class="cls-2" points="1265.7 196.5 1262.3 207.1 1251.3 207 1260.3 213.5 1256.8 224 1265.7 217.4 1274.6 224 1271.1 213.5 1280.1 207 1269.1 207.1 1265.7 196.5"/>
      <polygon class="cls-2" points="1236.6 225.6 1233.2 236.1 1222.2 236 1231.2 242.5 1227.7 253 1236.6 246.5 1245.5 253 1242.1 242.5 1251 236 1240 236.1 1236.6 225.6"/>
    </g>
    <path class="cls-3" d="M315.1,209.5L209.6,0,0,105.6l79,156.8H25.2v22.6h288.4v-22.6h-103.3l104.8-52.9ZM30.4,115.6L199.5,30.4l85.2,169.1-124.8,62.8h-55.6L30.4,115.6Z"/>
  </g>
</svg>