<?xml version="1.0" encoding="UTF-8"?>
<svg id="Camada_1" data-name="Camada 1" xmlns="http://www.w3.org/2000/svg" version="1.1" viewBox="0 0 1292.4 288.4">
  <defs>
    <style>
      .cls-1 {
        fill: #0c4da2;
      }

      .cls-1, .cls-2, .cls-3 {
        stroke-width: 0px;
      }

      .cls-2 {
        fill: #fff200;
      }

      .cls-3 {
        fill: #fff;
      }
    </style>
  </defs>
  <g id="Elements">
    <g>
      <path class="cls-3" d="M393.5,150.2h-12l-4,14h-19.5l3.9-14h-8.7v-16.4h13.3l4-14.6h-11.4v-16.1h16l4.2-15h19.6l-4.2,15h11.9l4.2-15h19.5l-4.2,15h9.9v16.1h-14.4l-4,14.6h12.4v16.4h-17.1l-3.8,14h-19.4l3.8-14ZM398.1,133.9l4.1-14.6h-12l-4.1,14.6h12Z"/>
      <path class="cls-3" d="M469.4,129.1v36.7h-22.5v-81.2h22.5v35.1l24-35.1h25.8l-28.1,39.8,29,41.4h-25.8l-24.9-36.7Z"/>
      <path class="cls-3" d="M553.1,84.6h27l29.8,81.1h-23.4l-5-14.8h-30.2l-5,14.8h-23.1l29.9-81.1ZM542.4,69.7c0-6,4.5-10.2,10.2-10.2s10.2,4.2,10.2,10.2-4.2,10.2-10.2,10.2c-5.7,0-10.2-4.2-10.2-10.2ZM566.3,107.3l-8.5,25h17.2l-8.5-25h-.2ZM569.9,69.7c0-6,4.5-10.2,10.2-10.2s10.2,4.2,10.2,10.2-4.2,10.2-10.2,10.2c-5.7,0-10.2-4.2-10.2-10.2Z"/>
      <path class="cls-3" d="M624.6,84.5l14.2,28.7,13.8-28.7h25.4l-28.1,51.3v29.9h-22.5v-30.3l-28.1-51h25.3Z"/>
      <path class="cls-3" d="M726.3,105.3v60.5h-22.5v-60.5h-23.1v-20.8h68.5v20.8h-22.9Z"/>
      <path class="cls-3" d="M770.2,84.6h27l29.8,81.1h-23.4l-5-14.8h-30.2l-5,14.8h-23.1l29.9-81.1ZM759.5,69.7c0-6,4.5-10.2,10.2-10.2s10.2,4.2,10.2,10.2-4.2,10.2-10.2,10.2c-5.8,0-10.2-4.2-10.2-10.2ZM783.4,107.3l-8.5,25h17.1l-8.5-25h0ZM787,69.7c0-6,4.5-10.2,10.2-10.2s10.2,4.2,10.2,10.2-4.2,10.2-10.2,10.2c-5.8,0-10.2-4.2-10.2-10.2Z"/>
      <path class="cls-3" d="M379.2,202.1h27l29.8,81.1h-23.4l-5-14.8h-30.2l-5,14.8h-23.1l29.9-81.1ZM368.5,187.2c0-6,4.5-10.2,10.2-10.2s10.2,4.2,10.2,10.2-4.2,10.2-10.2,10.2-10.2-4.2-10.2-10.2ZM392.4,224.8l-8.5,25h17.2l-8.5-25h-.2ZM396,187.2c0-6,4.5-10.2,10.2-10.2s10.2,4.2,10.2,10.2-4.2,10.2-10.2,10.2-10.2-4.2-10.2-10.2Z"/>
      <path class="cls-3" d="M468.9,202.1h27l29.8,81.1h-23.4l-5-14.8h-30.2l-5,14.8h-23.1l29.9-81.1ZM458.2,187.2c0-6,4.5-10.2,10.2-10.2s10.2,4.2,10.2,10.2-4.2,10.2-10.2,10.2-10.2-4.2-10.2-10.2ZM482.1,224.8l-8.5,25h17.2l-8.5-25h-.2ZM485.7,187.2c0-6,4.5-10.2,10.2-10.2s10.2,4.2,10.2,10.2-4.2,10.2-10.2,10.2-10.2-4.2-10.2-10.2Z"/>
      <path class="cls-3" d="M531.9,202h20.4l30.4,43.3v-43.3h22.5v81.3h-20l-31.1-44.4v44.4h-22.2v-81.3h0Z"/>
      <path class="cls-3" d="M657,222.8v60.5h-22.5v-60.5h-23.1v-20.8h68.6v20.8h-23Z"/>
      <path class="cls-3" d="M700.9,202.1h27l29.8,81.1h-23.4l-5-14.8h-30.2l-5,14.8h-23.1l29.9-81.1ZM690.2,187.2c0-6,4.5-10.2,10.2-10.2s10.2,4.2,10.2,10.2-4.2,10.2-10.2,10.2-10.2-4.2-10.2-10.2ZM714.1,224.8l-8.5,25h17.2l-8.5-25h-.2ZM717.7,187.2c0-6,4.5-10.2,10.2-10.2s10.2,4.2,10.2,10.2-4.2,10.2-10.2,10.2-10.2-4.2-10.2-10.2Z"/>
      <path class="cls-3" d="M760.2,272.9l11.9-15.8c4.9,5.3,12.7,8.7,20.4,8.7s10-1.6,10-6.5-4.5-6.7-12.7-8.4c-17.3-3.5-27.3-10.3-27.3-24.8s15-25.6,32.8-25.6,22.5,3.5,29.8,10.7l-11.7,15c-6.2-4.7-12.1-6.9-17.9-6.9s-9.3,1.6-9.3,5.5,3.1,5.9,12.5,7.9c17.9,3.6,27.7,11.8,27.7,26.5s-14.8,25.5-34.4,25.5c-13.1,0-24.8-5.1-31.8-11.8Z"/>
      <path class="cls-3" d="M835.2,202h22.6v81.3h-22.6v-81.3Z"/>
    </g>
    <g>
      <rect class="cls-3" x="936.9" y="51.2" width="355.5" height="237.2"/>
      <rect class="cls-1" x="941.6" y="55.9" width="346.2" height="227.8"/>
      <polygon class="cls-2" points="1114.4 77 1117.8 87.5 1128.9 87.4 1119.9 93.9 1123.4 104.4 1114.4 97.9 1105.6 104.4 1109 93.9 1100 87.4 1111.1 87.5 1114.4 77"/>
      <polygon class="cls-2" points="1114.4 235.2 1117.8 245.7 1128.9 245.6 1119.9 252.1 1123.4 262.6 1114.4 256.1 1105.6 262.6 1109 252.1 1100 245.6 1111.1 245.7 1114.4 235.2"/>
      <polygon class="cls-2" points="1075.1 87.5 1078.5 98 1089.5 98 1080.6 104.4 1084 114.9 1075.1 108.4 1066.2 114.9 1069.7 104.4 1060.7 98 1071.8 98 1075.1 87.5"/>
      <polygon class="cls-2" points="1046.2 116.5 1049.5 127.1 1060.6 127 1051.6 133.5 1055 143.9 1046.2 137.4 1037.3 143.9 1040.7 133.5 1031.7 127 1042.8 127.1 1046.2 116.5"/>
      <polygon class="cls-2" points="1035.5 156 1038.8 166.5 1049.9 166.4 1040.9 172.9 1044.3 183.4 1035.5 176.9 1026.6 183.4 1030 172.9 1021 166.4 1032.1 166.5 1035.5 156"/>
      <polygon class="cls-2" points="1046 195.4 1049.4 206 1060.4 205.9 1051.5 212.4 1054.9 222.9 1046 216.3 1037.1 222.9 1040.6 212.4 1031.6 205.9 1042.7 206 1046 195.4"/>
      <polygon class="cls-2" points="1075.1 224.5 1078.5 235 1089.5 234.9 1080.6 241.4 1084 251.9 1075.1 245.4 1066.2 251.9 1069.7 241.4 1060.7 234.9 1071.8 235 1075.1 224.5"/>
      <polygon class="cls-2" points="1153.8 87.5 1150.5 98 1139.4 98 1148.4 104.4 1144.9 114.9 1153.8 108.4 1162.7 114.9 1159.3 104.4 1168.2 98 1157.2 98 1153.8 87.5"/>
      <polygon class="cls-2" points="1182.8 116.5 1179.5 127.1 1168.4 127 1177.4 133.5 1173.9 143.9 1182.8 137.4 1191.7 143.9 1188.3 133.5 1197.2 127 1186.2 127.1 1182.8 116.5"/>
      <polygon class="cls-2" points="1193.5 156 1190.1 166.5 1179.1 166.4 1188 172.9 1184.6 183.4 1193.5 176.9 1202.4 183.4 1199 172.9 1207.9 166.4 1196.9 166.5 1193.5 156"/>
      <polygon class="cls-2" points="1182.9 195.4 1179.6 206 1168.5 205.9 1177.5 212.4 1174 222.9 1182.9 216.3 1191.8 222.9 1188.4 212.4 1197.3 205.9 1186.3 206 1182.9 195.4"/>
      <polygon class="cls-2" points="1153.8 224.5 1150.5 235 1139.4 234.9 1148.4 241.4 1144.9 251.9 1153.8 245.4 1162.7 251.9 1159.3 241.4 1168.2 234.9 1157.2 235 1153.8 224.5"/>
    </g>
    <path class="cls-3" d="M315.1,209.5L209.6,0,0,105.6l79,156.8H25.2v22.6h288.4v-22.6h-103.3l104.8-52.9ZM30.4,115.6L199.5,30.4l85.2,169.1-124.8,62.8h-55.6L30.4,115.6Z"/>
  </g>
</svg>