<?xml version="1.0" encoding="UTF-8"?>
<svg id="Layer_2" data-name="Layer 2" xmlns="http://www.w3.org/2000/svg" version="1.1" viewBox="0 0 276.5 64.2">
  <defs>
    <style>
      .cls-1 {
        fill: #fff;
        stroke-width: 0px;
      }
    </style>
  </defs>
  <g id="Layer_1-2" data-name="Layer 1-2">
    <g>
      <g>
        <polygon class="cls-1" points="47 10.7 61.5 26 66.6 26 66.6 .3 60.1 .3 60.1 15.7 45.6 .3 40.5 .3 40.5 26 47 26 47 10.7"/>
        <path class="cls-1" d="M82.8,26.4c6.6,0,11.6-4.9,11.6-11.4V.3h-6.5v15c0,2.8-2.1,5-4.9,5s-5-2.1-5-5V.3h-6.5v14.6c0,6.6,4.8,11.4,11.3,11.4h0Z"/>
        <path class="cls-1" d="M111.3,26.4c7.2,0,13.2-6,13.2-13.2S119.1,0,111.3,0s-13.3,5.9-13.3,13.2,5.5,13.2,13.3,13.2ZM104.5,13.2c0-3.9,3-7.1,6.7-7.1s6.7,3,6.7,7.1-2.9,7-6.7,7-6.7-3.1-6.7-7Z"/>
        <path class="cls-1" d="M144.8,26h6.9l-4.5-10.9c2.4-1.4,3.8-4,3.8-6.9,0-4.5-3.4-7.9-8-7.9h-14.9v25.7h6.5v-9.8h6.1l4.1,9.8h0ZM144.4,8.3c0,1.2-.7,1.9-1.9,1.9h-8v-3.8h8c1.2,0,1.9.7,1.9,1.9Z"/>
        <polygon class="cls-1" points="162.9 26 169.3 26 169.3 6.4 177.8 6.4 177.8 .3 154.4 .3 154.4 6.4 162.9 6.4 162.9 26"/>
        <polygon class="cls-1" points="182 26 204.9 26 204.9 20 188.5 20 188.5 16.2 204.7 16.2 204.7 10.1 188.5 10.1 188.5 6.4 204.9 6.4 204.9 .3 182 .3 182 26"/>
        <polygon class="cls-1" points="216.4 10.7 230.9 26 236 26 236 .3 229.5 .3 229.5 15.7 215 .3 209.9 .3 209.9 26 216.4 26 216.4 10.7"/>
      </g>
      <g>
        <polygon class="cls-1" points="25.9 31.7 16.8 53.3 7.8 31.7 0 31.7 13.8 63.8 19.8 63.8 33.6 31.7 25.9 31.7"/>
        <path class="cls-1" d="M41.6,31.7l-13.8,32.1h7.8l1.7-4.2h14.6l1.8,4.2h7.7l-13.8-32.1h-6ZM49,52.7h-8.7l4.3-10.5,4.3,10.5h0Z"/>
        <path class="cls-1" d="M76.5,31.7l-13.8,32.1h7.8l1.7-4.2h14.6l1.8,4.2h7.7l-13.8-32.1h-6ZM83.9,52.7h-8.7l4.3-10.5,4.3,10.5h0Z"/>
        <polygon class="cls-1" points="106.5 31.7 99 31.7 99 63.8 119.1 63.8 119.1 56.8 106.5 56.8 106.5 31.7"/>
        <rect class="cls-1" x="123.9" y="31.7" width="7.6" height="32.1"/>
        <polygon class="cls-1" points="171.2 31.7 161.4 31.7 144.3 49.2 144.3 31.7 136.8 31.7 136.8 63.8 144.3 63.8 144.3 59.3 155.1 48.1 161.9 63.8 170.2 63.8 160.9 42.3 171.2 31.7"/>
        <polygon class="cls-1" points="234.2 51.9 215.1 31.7 209.1 31.7 209.1 63.8 216.6 63.8 216.6 43.6 235.7 63.8 241.8 63.8 241.8 31.7 234.2 31.7 234.2 51.9"/>
        <polygon class="cls-1" points="276.5 38.7 276.5 31.7 247.9 31.7 247.9 63.8 276.5 63.8 276.5 56.8 255.4 56.8 255.4 51.2 276.2 51.2 276.2 44.3 255.4 44.3 255.4 38.7 276.5 38.7"/>
        <path class="cls-1" d="M203.2,36.6h.4v-3.9h-.4c-1.6,0-3.3.6-5,1.9-2.8-2.1-6.4-3.3-10.5-3.3-9.2,0-16.6,7.4-16.6,16.5s6.8,16.5,16.6,16.5,16.6-7.5,16.6-16.5-1.2-7.6-3.3-10.3c.8-.5,1.5-.8,2.1-.8h0ZM192.5,40.9c-1.5,2.3-3.1,5-4.8,8.3l-3.4-6.8-3.5,1.8,5.3,10.5h3.3s.2-.5.2-.5c1.2-2.5,3.4-7,6-10.8.6,1.3,1,2.8,1,4.5,0,5.4-3.8,9.4-8.9,9.4s-9-4.1-9-9.4,3.9-9.4,9-9.4,3.9.7,5.3,1.8c-.2.3-.4.5-.6.8h0Z"/>
      </g>
    </g>
  </g>
</svg>