<?xml version="1.0" standalone="no"?>
<!DOCTYPE svg PUBLIC "-//W3C//DTD SVG 1.1//EN" "http://www.w3.org/Graphics/SVG/1.1/DTD/svg11.dtd">
<svg xmlns="http://www.w3.org/2000/svg" id="Layer_2" viewBox="0 0 579.9 85.85" width="579.9000244140625" height="85.8499984741211"><g id="Layer_1-2"><g><path d="M383.63,6.7h.43V1.87h-.43c-2.01,0-4.05,.77-6.14,2.32-3.43-2.62-7.86-4.11-12.94-4.11-11.34,0-20.57,9.14-20.57,20.37,0,12,8.46,20.37,20.57,20.37,11.1,0,20.47-9.33,20.47-20.37,0-5.01-1.47-9.38-4.06-12.78,.98-.63,1.88-.97,2.67-.97Zm-13.16,5.3c-1.91,2.79-3.87,6.14-5.97,10.23l-4.23-8.41-4.31,2.17,6.51,12.96,4.09-.02,.31-.64c1.48-3.03,4.23-8.63,7.46-13.38,.8,1.63,1.25,3.51,1.25,5.55,0,6.63-4.74,11.63-11.04,11.63s-11.14-5.11-11.14-11.63,4.89-11.64,11.14-11.64c2.52,0,4.79,.82,6.61,2.21-.23,.32-.46,.64-.69,.98Z"/><polygon points="0 40.4 35.5 40.4 35.5 31.7 9.4 31.7 9.4 24.8 35.1 24.8 35.1 16.1 9.4 16.1 9.4 9.2 35.5 9.2 35.5 .5 0 .5 0 40.4"/><polygon points="65.2 31.7 49.6 31.7 49.6 .5 40.2 .5 40.2 40.4 65.2 40.4 65.2 31.7"/><polygon points="104.2 31.7 78.1 31.7 78.1 24.8 103.8 24.8 103.8 16.1 78.1 16.1 78.1 9.2 104.2 9.2 104.2 .5 68.7 .5 68.7 40.4 104.2 40.4 104.2 31.7"/><path d="M128.75,40.9c5.43,0,10.56-2.14,14.44-6.01l1.24-1.24-6.43-6.43-1.24,1.34c-2.1,2.28-4.94,3.53-8.01,3.53-6.25,0-11.15-5.12-11.15-11.65s4.9-11.65,11.15-11.65c3.17,0,5.95,1.19,8.01,3.43l1.24,1.34,6.55-6.55-1.28-1.24c-3.91-3.79-8.93-5.79-14.52-5.79-11.39,0-20.65,9.17-20.65,20.45,0,12.04,8.49,20.45,20.65,20.45Z"/><polygon points="159.8 40.4 169.1 40.4 169.1 9.2 182.5 9.2 182.5 .5 146.4 .5 146.4 9.2 159.8 9.2 159.8 40.4"/><rect x="185.9" y=".5" width="9.4" height="39.9"/><path d="M241,20.45c0-12.04-8.45-20.45-20.55-20.45-11.39,0-20.65,9.17-20.65,20.45,0,12.04,8.49,20.45,20.65,20.45,11.14,0,20.55-9.37,20.55-20.45Zm-20.55,11.65c-6.25,0-11.15-5.12-11.15-11.65s4.9-11.65,11.15-11.65,11.05,5.01,11.05,11.65-4.75,11.65-11.05,11.65Z"/><polygon points="285.1 40.4 285.1 .5 275.7 .5 275.7 25.56 252 .5 244.5 .5 244.5 40.4 253.9 40.4 253.9 15.35 277.6 40.4 285.1 40.4"/><path d="M342.92,33.65l-6.43-6.43-1.24,1.34c-2.1,2.28-4.94,3.53-8.01,3.53-6.25,0-11.15-5.12-11.15-11.65s4.9-11.65,11.15-11.65c3.17,0,5.95,1.19,8.01,3.43l1.24,1.34,6.55-6.55-1.28-1.24c-3.91-3.79-8.93-5.79-14.52-5.79-11.39,0-20.65,9.17-20.65,20.45,0,12.04,8.49,20.45,20.65,20.45,5.43,0,10.56-2.14,14.44-6.01l1.24-1.24Z"/><polygon points="398 15.96 408.95 26.48 419.9 15.96 419.9 40.4 429.2 40.4 429.2 .5 422.83 .5 408.95 14.28 395.17 .5 388.7 .5 388.7 40.4 398 40.4 398 15.96"/><path d="M443.9,24.8h13.75c6.98,0,12.25-5.22,12.25-12.15s-5.27-12.15-12.25-12.15h-23.15V40.4h9.4v-15.6Zm0-15.6h13.15c2.13,0,3.45,1.32,3.45,3.45s-1.32,3.45-3.45,3.45h-13.15v-6.9Z"/><path d="M473.53,40.4l2.1-5.2h18.06l2.2,5.2h9.61L488.4,.5h-7.51l-17.1,39.9h9.73Zm5.74-13.9l5.38-12.9,5.38,12.9h-10.75Z"/><path d="M530.55,16.1h-11c-2.13,0-3.45-1.32-3.45-3.45s1.32-3.45,3.45-3.45h20.05V.5h-20.65c-6.81,0-12.15,5.34-12.15,12.15s5.11,12.15,12.15,12.15h11c2.13,0,3.45,1.32,3.45,3.45s-1.32,3.45-3.45,3.45h-22.55v8.7h23.15c7.61,0,12.15-6.18,12.15-12.15,0-7.04-5.11-12.15-12.15-12.15Z"/><path d="M567.75,16.1h-11c-2.13,0-3.45-1.32-3.45-3.45s1.32-3.45,3.45-3.45h20.05V.5h-20.65c-6.81,0-12.15,5.34-12.15,12.15s5.11,12.15,12.15,12.15h11c2.13,0,3.45,1.32,3.45,3.45s-1.32,3.45-3.45,3.45h-22.55v8.7h23.15c7.61,0,12.15-6.18,12.15-12.15,0-7.04-5.11-12.15-12.15-12.15Z"/><polygon points="53.81 71.54 53.9 85.46 61.91 85.46 61.91 73.29 81.96 73.29 81.96 65.73 61.91 65.73 61.91 61.12 82.27 61.12 82.27 53.56 53.81 53.56 53.81 71.54"/><path d="M101.4,53.17c-9.09,0-16.49,7.33-16.49,16.34,0,9.62,6.78,16.34,16.49,16.34,8.9,0,16.41-7.48,16.41-16.34,0-9.62-6.75-16.34-16.41-16.34Zm0,25.04c-4.66,0-8.31-3.82-8.31-8.7s3.65-8.7,8.31-8.7,8.23,3.74,8.23,8.7-3.54,8.7-8.23,8.7Z"/><path d="M148.15,63.43c0-5.62-4.27-9.86-9.94-9.86h-18.44v31.89h8.1v-12.17h7.54l5.07,12.17h8.54l-5.59-13.53c2.92-1.74,4.73-4.91,4.73-8.5Zm-20.28-2.31h9.87c1.44,0,2.31,.86,2.31,2.31s-.86,2.31-2.31,2.31h-9.87v-4.61Z"/><polygon points="183.54 53.56 175.49 63.8 167.37 53.56 157.31 53.56 171.41 70.91 171.41 85.46 179.51 85.46 179.51 70.91 193.6 53.56 183.54 53.56"/><path d="M205.43,53.17c-9.09,0-16.49,7.33-16.49,16.34,0,9.62,6.78,16.34,16.49,16.34,8.9,0,16.41-7.48,16.41-16.34,0-9.62-6.75-16.34-16.41-16.34Zm0,25.04c-4.66,0-8.31-3.82-8.31-8.7s3.65-8.7,8.31-8.7,8.23,3.74,8.23,8.7-3.54,8.7-8.23,8.7Z"/><path d="M244.77,72.08c0,3.49-2.6,6.13-6.05,6.13s-6.13-2.63-6.13-6.13v-18.52h-8.1v18.13c0,8.2,5.89,14.15,14,14.15s14.39-6.08,14.39-14.15v-18.13h-8.1v18.52Z"/><polygon points="280.48 72.52 262.55 53.56 256.15 53.56 256.15 85.46 264.25 85.46 264.25 66.5 282.18 85.46 288.59 85.46 288.59 53.56 280.48 53.56 280.48 72.52"/><path d="M306.29,75.32h7.99c-1.53,1.83-3.75,2.9-6.24,2.9-4.66,0-8.31-3.82-8.31-8.7s3.65-8.7,8.31-8.7c2.37,0,4.43,.88,5.97,2.55l1.23,1.34,5.67-5.67-1.28-1.24c-3.12-3.03-7.13-4.63-11.59-4.63-9.09,0-16.49,7.33-16.49,16.34,0,9.62,6.78,16.34,16.49,16.34,8.9,0,16.41-7.48,16.41-16.34v-1.75h-18.16v7.56Z"/><path d="M356.38,53.56h-18.44v31.89h8.1v-12.17h10.34c5.67,0,9.94-4.24,9.94-9.86s-4.27-9.86-9.94-9.86Zm-10.34,7.56h9.87c1.44,0,2.31,.86,2.31,2.31s-.86,2.31-2.31,2.31h-9.87v-4.61Z"/><polygon points="368.19 85.46 396.65 85.46 396.65 77.9 376.29 77.9 376.29 73.29 396.34 73.29 396.34 65.73 376.29 65.73 376.29 61.12 396.65 61.12 396.65 53.56 368.19 53.56 368.19 85.46"/><path d="M415.63,53.17c-9.09,0-16.49,7.33-16.49,16.34,0,9.62,6.78,16.34,16.49,16.34,8.9,0,16.41-7.48,16.41-16.34,0-9.62-6.75-16.34-16.41-16.34Zm0,25.04c-4.66,0-8.31-3.82-8.31-8.7s3.65-8.7,8.31-8.7,8.23,3.74,8.23,8.7-3.54,8.7-8.23,8.7Z"/><path d="M453.45,53.56h-18.44v31.89h8.1v-12.17h10.34c5.67,0,9.94-4.24,9.94-9.86s-4.27-9.86-9.94-9.86Zm-10.34,7.56h9.87c1.44,0,2.31,.86,2.31,2.31s-.86,2.31-2.31,2.31h-9.87v-4.61Z"/><polygon points="473.36 53.56 465.26 53.56 465.26 85.46 485.53 85.46 485.53 77.9 473.36 77.9 473.36 53.56"/><polygon points="487.93 85.46 516.39 85.46 516.39 77.9 496.03 77.9 496.03 73.29 516.08 73.29 516.08 65.73 496.03 65.73 496.03 61.12 516.39 61.12 516.39 53.56 487.93 53.56 487.93 85.46"/></g></g></svg>