<?xml version="1.0" standalone="no"?>
<!DOCTYPE svg PUBLIC "-//W3C//DTD SVG 1.1//EN" "http://www.w3.org/Graphics/SVG/1.1/DTD/svg11.dtd">
<svg xmlns="http://www.w3.org/2000/svg" id="Layer_2" viewBox="0 0 276.49 64.23" width="276.489990234375" height="64.2300033569336"><g id="Layer_1-2"><g><g><polygon points="46.97 10.7 61.48 26.04 66.63 26.04 66.63 .31 60.12 .31 60.12 15.66 45.61 .31 40.46 .31 40.46 26.04 46.97 26.04 46.97 10.7"/><path d="M82.84,26.36c6.61,0,11.6-4.91,11.6-11.41V.31h-6.51V15.26c0,2.83-2.11,4.97-4.9,4.97s-4.97-2.14-4.97-4.97V.31h-6.51V14.94c0,6.61,4.75,11.41,11.29,11.41Z"/><path d="M111.27,26.36c7.18,0,13.24-6.04,13.24-13.18,0-7.76-5.45-13.18-13.24-13.18-7.34,0-13.3,5.91-13.3,13.18,0,7.76,5.47,13.18,13.3,13.18Zm-6.73-13.18c0-3.95,2.96-7.05,6.73-7.05s6.67,3.03,6.67,7.05-2.87,7.05-6.67,7.05-6.73-3.1-6.73-7.05Z"/><path d="M144.75,26.04h6.86l-4.51-10.92c2.36-1.4,3.82-3.96,3.82-6.86,0-4.53-3.44-7.95-8.01-7.95h-14.88V26.04h6.51v-9.83h6.12l4.1,9.83Zm-.34-17.78c0,1.18-.7,1.88-1.88,1.88h-7.99v-3.76h7.99c1.18,0,1.88,.7,1.88,1.88Z"/><polygon points="162.88 26.04 169.33 26.04 169.33 6.38 177.77 6.38 177.77 .31 154.44 .31 154.44 6.38 162.88 6.38 162.88 26.04"/><polygon points="181.99 26.04 204.94 26.04 204.94 19.97 188.5 19.97 188.5 16.21 204.69 16.21 204.69 10.14 188.5 10.14 188.5 6.38 204.94 6.38 204.94 .31 181.99 .31 181.99 26.04"/><polygon points="216.37 10.7 230.88 26.04 236.03 26.04 236.03 .31 229.52 .31 229.52 15.66 215.01 .31 209.86 .31 209.86 26.04 216.37 26.04 216.37 10.7"/></g><g><polygon points="25.85 31.69 16.79 53.32 7.81 31.69 0 31.69 13.77 63.82 19.8 63.82 33.58 31.69 25.85 31.69"/><path d="M41.64,31.69l-13.77,32.13h7.82l1.69-4.19h14.58l1.77,4.19h7.72l-13.77-32.13h-6.03Zm7.37,20.96h-8.71l4.35-10.45,4.35,10.45Z"/><path d="M76.49,31.69l-13.77,32.13h7.82l1.69-4.19h14.58l1.77,4.19h7.72l-13.77-32.13h-6.03Zm7.37,20.96h-8.71l4.35-10.45,4.35,10.45Z"/><polygon points="106.51 31.69 98.96 31.69 98.96 63.82 119.08 63.82 119.08 56.84 106.51 56.84 106.51 31.69"/><rect x="123.92" y="31.69" width="7.55" height="32.13"/><polygon points="171.23 31.69 161.45 31.69 144.33 49.17 144.33 31.69 136.78 31.69 136.78 63.82 144.33 63.82 144.33 59.29 155.14 48.13 161.93 63.82 170.21 63.82 160.87 42.34 171.23 31.69"/><polygon points="234.2 51.91 215.08 31.69 209.05 31.69 209.05 63.82 216.6 63.82 216.6 43.61 235.72 63.82 241.75 63.82 241.75 31.69 234.2 31.69 234.2 51.91"/><polygon points="276.49 38.67 276.49 31.69 247.91 31.69 247.91 63.82 276.49 63.82 276.49 56.84 255.45 56.84 255.45 51.25 276.17 51.25 276.17 44.27 255.45 44.27 255.45 38.67 276.49 38.67"/><path d="M203.16,36.64h.35v-3.9h-.35c-1.62,0-3.27,.62-4.96,1.87-2.77-2.12-6.36-3.33-10.46-3.33-9.17,0-16.63,7.39-16.63,16.47,0,9.7,6.84,16.47,16.63,16.47,8.97,0,16.55-7.54,16.55-16.47,0-4.05-1.19-7.58-3.28-10.33,.79-.51,1.52-.78,2.15-.78Zm-10.64,4.29c-1.54,2.26-3.13,4.97-4.83,8.27l-3.42-6.8-3.49,1.75,5.27,10.47,3.3-.02,.25-.52c1.2-2.45,3.42-6.97,6.03-10.82,.65,1.32,1.01,2.84,1.01,4.48,0,5.36-3.84,9.4-8.92,9.4s-9-4.13-9-9.4,3.95-9.41,9-9.41c2.04,0,3.87,.66,5.34,1.78-.19,.26-.37,.52-.56,.79Z"/></g></g></g></svg>