<?xml version="1.0" encoding="UTF-8"?>
<svg id="Layer_2" data-name="Layer 2" xmlns="http://www.w3.org/2000/svg" version="1.1" viewBox="0 0 579.9 85.8">
  <defs>
    <style>
      .cls-1 {
        fill: #fff;
        stroke-width: 0px;
      }
    </style>
  </defs>
  <g id="Layer_1-2" data-name="Layer 1-2">
    <g>
      <path class="cls-1" d="M383.6,6.7h.4V1.9h-.4c-2,0-4,.8-6.1,2.3-3.4-2.6-7.9-4.1-12.9-4.1-11.3,0-20.6,9.1-20.6,20.4s8.5,20.4,20.6,20.4,20.5-9.3,20.5-20.4-1.5-9.4-4.1-12.8c1-.6,1.9-1,2.7-1ZM370.5,12c-1.9,2.8-3.9,6.1-6,10.2l-4.2-8.4-4.3,2.2,6.5,13h4.1s.3-.7.3-.7c1.5-3,4.2-8.6,7.5-13.4.8,1.6,1.2,3.5,1.2,5.6,0,6.6-4.7,11.6-11,11.6s-11.1-5.1-11.1-11.6,4.9-11.6,11.1-11.6,4.8.8,6.6,2.2c-.2.3-.5.6-.7,1h0Z"/>
      <polygon class="cls-1" points="0 40.4 35.5 40.4 35.5 31.7 9.4 31.7 9.4 24.8 35.1 24.8 35.1 16.1 9.4 16.1 9.4 9.2 35.5 9.2 35.5 .5 0 .5 0 40.4"/>
      <polygon class="cls-1" points="65.2 31.7 49.6 31.7 49.6 .5 40.2 .5 40.2 40.4 65.2 40.4 65.2 31.7"/>
      <polygon class="cls-1" points="104.2 31.7 78.1 31.7 78.1 24.8 103.8 24.8 103.8 16.1 78.1 16.1 78.1 9.2 104.2 9.2 104.2 .5 68.7 .5 68.7 40.4 104.2 40.4 104.2 31.7"/>
      <path class="cls-1" d="M128.8,40.9c5.4,0,10.6-2.1,14.4-6l1.2-1.2-6.4-6.4-1.2,1.3c-2.1,2.3-4.9,3.5-8,3.5-6.2,0-11.2-5.1-11.2-11.6s4.9-11.6,11.2-11.6,5.9,1.2,8,3.4l1.2,1.3,6.6-6.6-1.3-1.2C139.4,2,134.3,0,128.8,0c-11.4,0-20.7,9.2-20.7,20.5s8.5,20.4,20.7,20.4h0Z"/>
      <polygon class="cls-1" points="159.8 40.4 169.1 40.4 169.1 9.2 182.5 9.2 182.5 .5 146.4 .5 146.4 9.2 159.8 9.2 159.8 40.4"/>
      <rect class="cls-1" x="185.9" y=".5" width="9.4" height="39.9"/>
      <path class="cls-1" d="M241,20.5c0-12-8.4-20.5-20.6-20.5s-20.6,9.2-20.6,20.5,8.5,20.5,20.6,20.5,20.6-9.4,20.6-20.5ZM220.4,32.1c-6.2,0-11.1-5.1-11.1-11.6s4.9-11.6,11.1-11.6,11.1,5,11.1,11.6-4.8,11.6-11.1,11.6Z"/>
      <polygon class="cls-1" points="285.1 40.4 285.1 .5 275.7 .5 275.7 25.6 252 .5 244.5 .5 244.5 40.4 253.9 40.4 253.9 15.4 277.6 40.4 285.1 40.4"/>
      <path class="cls-1" d="M342.9,33.7l-6.4-6.4-1.2,1.3c-2.1,2.3-4.9,3.5-8,3.5-6.2,0-11.1-5.1-11.1-11.6s4.9-11.6,11.1-11.6,6,1.2,8,3.4l1.2,1.3,6.5-6.6-1.3-1.2c-3.9-3.8-8.9-5.8-14.5-5.8-11.4,0-20.6,9.2-20.6,20.5s8.5,20.5,20.6,20.5,10.6-2.1,14.4-6l1.2-1.2h0Z"/>
      <polygon class="cls-1" points="398 16 409 26.5 419.9 16 419.9 40.4 429.2 40.4 429.2 .5 422.8 .5 409 14.3 395.2 .5 388.7 .5 388.7 40.4 398 40.4 398 16"/>
      <path class="cls-1" d="M443.9,24.8h13.8c7,0,12.2-5.2,12.2-12.1s-5.3-12.1-12.2-12.1h-23.1v39.9h9.4v-15.6ZM443.9,9.2h13.1c2.1,0,3.5,1.3,3.5,3.4s-1.3,3.4-3.5,3.4h-13.1v-6.9Z"/>
      <path class="cls-1" d="M473.5,40.4l2.1-5.2h18.1l2.2,5.2h9.6L488.4.5h-7.5l-17.1,39.9h9.7ZM479.3,26.5l5.4-12.9,5.4,12.9h-10.8Z"/>
      <path class="cls-1" d="M530.5,16.1h-11c-2.1,0-3.5-1.3-3.5-3.4s1.3-3.4,3.5-3.4h20V.5h-20.7c-6.8,0-12.1,5.3-12.1,12.1s5.1,12.1,12.1,12.1h11c2.1,0,3.5,1.3,3.5,3.5s-1.3,3.5-3.5,3.5h-22.5v8.7h23.2c7.6,0,12.2-6.2,12.2-12.1s-5.1-12.1-12.2-12.2Z"/>
      <path class="cls-1" d="M567.8,16.1h-11c-2.1,0-3.5-1.3-3.5-3.4s1.3-3.4,3.5-3.4h20V.5h-20.7c-6.8,0-12.2,5.3-12.2,12.1s5.1,12.1,12.2,12.1h11c2.1,0,3.5,1.3,3.5,3.5s-1.3,3.5-3.5,3.5h-22.5v8.7h23.2c7.6,0,12.2-6.2,12.2-12.1s-5.1-12.1-12.2-12.2Z"/>
      <polygon class="cls-1" points="53.8 71.5 53.9 85.5 61.9 85.5 61.9 73.3 82 73.3 82 65.7 61.9 65.7 61.9 61.1 82.3 61.1 82.3 53.6 53.8 53.6 53.8 71.5"/>
      <path class="cls-1" d="M101.4,53.2c-9.1,0-16.5,7.3-16.5,16.3s6.8,16.3,16.5,16.3,16.4-7.5,16.4-16.3-6.8-16.3-16.4-16.3ZM101.4,78.2c-4.7,0-8.3-3.8-8.3-8.7s3.7-8.7,8.3-8.7,8.2,3.7,8.2,8.7-3.5,8.7-8.2,8.7Z"/>
      <path class="cls-1" d="M148.1,63.4c0-5.6-4.3-9.9-9.9-9.9h-18.4v31.9h8.1v-12.2h7.5l5.1,12.2h8.5l-5.6-13.5c2.9-1.7,4.7-4.9,4.7-8.5h0ZM127.9,61.1h9.9c1.4,0,2.3.9,2.3,2.3s-.9,2.3-2.3,2.3h-9.9v-4.6h0Z"/>
      <polygon class="cls-1" points="183.5 53.6 175.5 63.8 167.4 53.6 157.3 53.6 171.4 70.9 171.4 85.5 179.5 85.5 179.5 70.9 193.6 53.6 183.5 53.6"/>
      <path class="cls-1" d="M205.4,53.2c-9.1,0-16.5,7.3-16.5,16.3s6.8,16.3,16.5,16.3,16.4-7.5,16.4-16.3-6.8-16.3-16.4-16.3ZM205.4,78.2c-4.7,0-8.3-3.8-8.3-8.7s3.6-8.7,8.3-8.7,8.2,3.7,8.2,8.7-3.5,8.7-8.2,8.7Z"/>
      <path class="cls-1" d="M244.8,72.1c0,3.5-2.6,6.1-6.1,6.1s-6.1-2.6-6.1-6.1v-18.5h-8.1v18.1c0,8.2,5.9,14.2,14,14.2s14.4-6.1,14.4-14.2v-18.1h-8.1v18.5h0Z"/>
      <polygon class="cls-1" points="280.5 72.5 262.5 53.6 256.1 53.6 256.1 85.5 264.2 85.5 264.2 66.5 282.2 85.5 288.6 85.5 288.6 53.6 280.5 53.6 280.5 72.5"/>
      <path class="cls-1" d="M306.3,75.3h8c-1.5,1.8-3.8,2.9-6.2,2.9-4.7,0-8.3-3.8-8.3-8.7s3.6-8.7,8.3-8.7,4.4.9,6,2.5l1.2,1.3,5.7-5.7-1.3-1.2c-3.1-3-7.1-4.6-11.6-4.6-9.1,0-16.5,7.3-16.5,16.3s6.8,16.3,16.5,16.3,16.4-7.5,16.4-16.3v-1.8h-18.2v7.6h0Z"/>
      <path class="cls-1" d="M356.4,53.6h-18.4v31.9h8.1v-12.2h10.3c5.7,0,9.9-4.2,9.9-9.9s-4.3-9.9-9.9-9.9ZM346,61.1h9.9c1.4,0,2.3.9,2.3,2.3s-.9,2.3-2.3,2.3h-9.9v-4.6h0Z"/>
      <polygon class="cls-1" points="368.2 85.5 396.6 85.5 396.6 77.9 376.3 77.9 376.3 73.3 396.3 73.3 396.3 65.7 376.3 65.7 376.3 61.1 396.6 61.1 396.6 53.6 368.2 53.6 368.2 85.5"/>
      <path class="cls-1" d="M415.6,53.2c-9.1,0-16.5,7.3-16.5,16.3s6.8,16.3,16.5,16.3,16.4-7.5,16.4-16.3-6.8-16.3-16.4-16.3ZM415.6,78.2c-4.7,0-8.3-3.8-8.3-8.7s3.6-8.7,8.3-8.7,8.2,3.7,8.2,8.7-3.5,8.7-8.2,8.7Z"/>
      <path class="cls-1" d="M453.5,53.6h-18.4v31.9h8.1v-12.2h10.3c5.7,0,9.9-4.2,9.9-9.9s-4.3-9.9-9.9-9.9ZM443.1,61.1h9.9c1.4,0,2.3.9,2.3,2.3s-.9,2.3-2.3,2.3h-9.9v-4.6h0Z"/>
      <polygon class="cls-1" points="473.4 53.6 465.3 53.6 465.3 85.5 485.5 85.5 485.5 77.9 473.4 77.9 473.4 53.6"/>
      <polygon class="cls-1" points="487.9 85.5 516.4 85.5 516.4 77.9 496 77.9 496 73.3 516.1 73.3 516.1 65.7 496 65.7 496 61.1 516.4 61.1 516.4 53.6 487.9 53.6 487.9 85.5"/>
    </g>
  </g>
</svg>