<?xml version="1.0" encoding="UTF-8"?>
<svg id="Layer_2" data-name="Layer 2" xmlns="http://www.w3.org/2000/svg" version="1.1" viewBox="0 0 461 96.9">
  <defs>
    <style>
      .cls-1 {
        fill: #fff;
        stroke-width: 0px;
      }
    </style>
  </defs>
  <g id="Layer_1-2" data-name="Layer 1-2">
    <g>
      <g>
        <path class="cls-1" d="M225.7,8h.5V2.2h-.5c-2.4,0-4.9.9-7.4,2.8-4.1-3.2-9.5-4.9-15.6-4.9-13.7,0-24.8,11-24.8,24.5s10.2,24.5,24.8,24.5,24.6-11.2,24.6-24.5-1.8-11.3-4.9-15.4c1.2-.8,2.3-1.2,3.2-1.2h0ZM209.8,14.4c-2.3,3.4-4.7,7.4-7.2,12.3l-5.1-10.1-5.2,2.6,7.8,15.6h4.9s.4-.8.4-.8c1.8-3.6,5.1-10.4,9-16.1,1,2,1.5,4.2,1.5,6.7,0,8-5.7,14-13.3,14s-13.4-6.2-13.4-14,5.9-14,13.4-14,5.8,1,8,2.7c-.3.4-.6.8-.8,1.2h0Z"/>
        <polygon class="cls-1" points="38.5 .8 24.7 33.8 11 .8 0 .8 20.4 48.3 29 48.3 49.4 .8 38.5 .8"/>
        <path class="cls-1" d="M60.9.8l-20.4,47.6h11l2.5-6.3h22.4l2.7,6.3h10.8L69.5.8h-8.6ZM72.2,32.2h-14.1l7.1-17,7.1,17Z"/>
        <polygon class="cls-1" points="123.1 38.5 104.2 38.5 104.2 .8 93.6 .8 93.6 48.3 123.1 48.3 123.1 38.5"/>
        <polygon class="cls-1" points="139.4 41.7 156.1 24.5 166.4 48.3 178.1 48.3 164.2 16.3 179.3 .8 165.6 .8 139.4 27.5 139.4 .8 128.7 .8 128.7 48.3 139.4 48.3 139.4 41.7"/>
        <polygon class="cls-1" points="280.6 48.3 280.6 .8 273.4 .8 256.5 17.6 239.6 .8 232.3 .8 232.3 48.3 242.8 48.3 242.8 18.2 256.5 31.3 270.1 18.2 270.1 48.3 280.6 48.3"/>
        <path class="cls-1" d="M298.1,29.4h17c8.2,0,14.5-6.2,14.5-14.3s-6.2-14.3-14.5-14.3h-27.7v47.6h10.6v-18.9h0ZM298.1,10.5h16.3c2.8,0,4.5,1.7,4.5,4.6s-1.7,4.6-4.5,4.6h-16.3v-9.1h0Z"/>
        <path class="cls-1" d="M333.9,48.3l2.5-6.3h22.4l2.7,6.3h10.8L351.9.8h-8.6l-20.4,47.6h11ZM340.6,32.2l7.1-17,7.1,17h-14.1Z"/>
        <path class="cls-1" d="M401.8,19.6h-13.3c-2.8,0-4.5-1.7-4.5-4.6s1.7-4.6,4.5-4.6h23.9V.8h-24.6c-8,0-14.3,6.3-14.3,14.3s6,14.3,14.3,14.3h13.3c2.8,0,4.5,1.7,4.5,4.5s-1.7,4.5-4.5,4.5h-26.9v9.8h27.7c9,0,14.3-7.3,14.3-14.3s-6-14.3-14.3-14.3h0Z"/>
        <path class="cls-1" d="M446.7,19.6h-13.3c-2.8,0-4.5-1.7-4.5-4.6s1.7-4.6,4.5-4.6h23.9V.8h-24.6c-8,0-14.3,6.3-14.3,14.3s6,14.3,14.3,14.3h13.3c2.8,0,4.5,1.7,4.5,4.5s-1.7,4.5-4.5,4.5h-26.9v9.8h27.7c9,0,14.3-7.3,14.3-14.3s-6-14.3-14.3-14.3h0Z"/>
      </g>
      <g>
        <polygon class="cls-1" points="100.5 81.2 100.6 96.5 109.1 96.5 109.1 83 131.4 83 131.4 75 109.1 75 109.1 69.4 131.8 69.4 131.8 61.4 100.5 61.4 100.5 81.2"/>
        <g>
          <path class="cls-1" d="M155.7,56.2c0,1.8,1.5,3.2,3.2,3.2s3.2-1.5,3.2-3.2-1.5-3.2-3.2-3.2-3.2,1.5-3.2,3.2Z"/>
          <path class="cls-1" d="M152.3,61c-10,0-18.2,8.1-18.2,18s7.5,18,18.2,18,18.1-8.2,18.1-18-7.4-18-18.1-18h0ZM161.7,79c0,5.6-4,9.9-9.4,9.9s-9.4-4.3-9.4-9.9,4.1-9.9,9.4-9.9,9.4,4.2,9.4,9.9Z"/>
          <path class="cls-1" d="M141.8,56.2c0,1.8,1.5,3.2,3.2,3.2s3.2-1.5,3.2-3.2-1.5-3.2-3.2-3.2-3.2,1.5-3.2,3.2Z"/>
        </g>
        <path class="cls-1" d="M204.4,72.2c0-6.1-4.7-10.8-10.9-10.8h-20.3v35.1h8.6v-13.5h8.7l5.6,13.5h9.1l-6.2-14.9c3.3-1.9,5.3-5.4,5.3-9.4h0ZM195.8,72.2c0,1.7-1,2.8-2.8,2.8h-11.2v-5.5h11.2c1.7,0,2.8,1,2.8,2.8h0Z"/>
        <path class="cls-1" d="M246.4,81.8c0,4-3,7-6.9,7s-7-3-7-7v-20.4h-8.6v20c0,9,6.5,15.6,15.4,15.6s15.8-6.7,15.8-15.6v-20h-8.6v20.4h0Z"/>
        <polygon class="cls-1" points="287.3 82.8 267 61.4 260.2 61.4 260.2 96.5 268.8 96.5 268.8 75.1 289.1 96.5 295.9 96.5 295.9 61.4 287.3 61.4 287.3 82.8"/>
        <path class="cls-1" d="M336,77.2h-19.8v8h9.1c-1.8,2.3-4.4,3.6-7.3,3.6-5.3,0-9.5-4.3-9.5-9.9s4.1-9.9,9.5-9.9,5,1,6.8,2.9l1.2,1.3,6-6-1.3-1.2c-3.4-3.3-7.9-5.1-12.8-5.1-10,0-18.1,8.1-18.1,18s7.5,18,18.1,18,18.1-8.2,18.1-18v-1.8h0Z"/>
        <path class="cls-1" d="M348.6,61.4l-15,35.1h9l1.8-4.5h15.4l1.9,4.5h8.9l-15-35.1h-6.8ZM347.7,84l4.3-10.4,4.3,10.4h-8.6Z"/>
      </g>
    </g>
  </g>
</svg>