<?xml version="1.0" encoding="UTF-8"?>
<svg id="Layer_1" data-name="Layer 1" xmlns="http://www.w3.org/2000/svg" version="1.1" viewBox="0 0 294.8 55.3">
  <defs>
    <style>
      .cls-1 {
        fill: #000;
        stroke-width: 0px;
      }
    </style>
  </defs>
  <path class="cls-1" d="M156,0h-.1s0,0,0,0h-59.5s-.1,0-.1,0c-1.1,0-2.1.9-2.1,2.1,0,0,0,.1,0,.2v4.4c0,0,0,.1,0,.2h0c0,1.2.9,2.1,2.1,2.1s.1,0,.2,0h22.3v44.1c0,1.1.9,2.1,2.1,2.1h6c1.1,0,2-.9,2.1-2,0-.1,0-.2,0-.4l.6-7.9.8-10.4,1.6-20.8.4-4.8h21.2c1.3,0,1.9-.6,2.6-2.3l1.5-3.3v-.3c.3-.3.4-.7.4-1.1,0-1.1-.9-2.1-2.1-2.1M201.6,31.6s.1,0,.2,0c6-2,3.9-1.2,11.3-3.8,6-2.1,9.7-7.2,9.7-13.4s0-.4,0-.5h0s0,0,0,0h0c-.1-4.7-2.2-8.1-4.9-10.4h0c-2.8-2.3-6.3-3.4-9.3-3.4h-43.4s-1.5,0-1.5,0c-1.3,0-2.3,1-2.3,2.3v50.6c0,1.3,1,2.3,2.3,2.3l5.6-1.2c1.3,0,2.3-1,2.3-2.3l.4-6.7.6-10.4,1.1-20.8v-2.3c.3-1.1,1.3-2.2,2.4-2.4h32.3c.9,0,4.8.7,5.5,4.6h0c0,.4,0,.8,0,1.2,0,2.9-2.5,5.1-4.6,5.5-1.9.4-21.2,3.5-21.2,3.5-.9.1-5.1,1.2-5.1,5.8s1.1,3.6,2.6,4.8h0c1,.8,2.1,1.6,3.1,2.5l9.3,7.9,9.7,8.2c2.4,2.1,1.9,2,5.3,2h5.4c2.1,0,2.3-2.5,1.3-3.2l-7.7-7-11-9.9c0,0-.1-.1-.2-.2,0,0-.1-.2-.2-.3h0c-.2-.3-.3-.7-.3-1,0-1,.6-1.8,1.5-2M281.4,45.1h0c-.6.4-1.2.6-2,.8l-15.6-.8-24.7-1.3c-3.4,0-6.4-2.4-6.4-5.7s.3-2.5.9-3.5h-1.1s0,0,0,0h1.1c1-1.6,3.1-2.8,6.6-2.9l40.1-2.5c1.3,0,2.3,1.3,2.3,2.6h0s.2,2.8.2,2.8l.4,7.1c-.1,1.5-.8,2.6-1.8,3.3M294.5,39.3v-.4s-.5-4.3-.5-4.3l-1.9-18.2c0-.9,0-1.7-.2-2.6h0c-.7-4.2-3-7.9-6.3-10.4h0c-2.8-2.1-6.4-3.4-10.3-3.4h-45.7c-1.1,0-2.1,1-2.1,2.1s.1.8.3,1.1v.2c0,0,1.6,3.4,1.6,3.4.8,1.7,1.3,2.3,2.6,2.3h43.1c3.1,0,5.5,1.9,6,4.7,0,.3,0,.6,0,.9,0,3.3-2.7,4.2-6,4.3l-37.2,3.5c-8.2,1.1-13.2,6.5-14.7,12.1h0c-.3,1.2-.5,2.5-.5,3.7,0,2.4.5,4.6,1.4,6.7,0,0,0,0,0,0h0c2.5,5.9,8.3,10.2,15.2,10.2h42.6c9.5.1,12.6-2,12.7-10.2h0c0-1.7,0-3.6-.3-5.8M27,45.1l-22.4,1c-1.3,0-1.9.6-2.6,2.3l-1.6,3.6C.1,52.4,0,52.7,0,53.2c0,.9.6,1.7,1.5,2,0,0,.2.1.4.1h51.9c7,0,12.8-4.3,15.3-10.2M69.2,45.1c.8-1.9,1.3-4.1,1.3-6.3,0-1.4-.2-2.8-.5-4.1h0c-1.5-5.8-6.5-10.9-13.8-11.9l-40.7-4c-1.2,0-4.2-1.5-4.2-4.7,0,0,0-.1,0-.2,0-2.2,1.5-4.7,5.1-4.7h48.5c1.3,0,1.9-.6,2.6-2.3l1.5-3.4v-.3c.3-.3.4-.7.4-1.1,0-1.1-.9-2.1-2.1-2.1H16.9c-2.7,0-6.2,1.1-9.1,3.4h0c-2.9,2.3-5.2,5.8-5.5,10.4h0s0,0,0,0c0,.4,0,.9,0,1.3.1,9.3,7.4,14.4,14.4,14.9,5,.3,37.9,1.8,37.9,1.8,2.7.2,4.4,1.3,5.4,2.8h0c.6,1,.9,2.2.9,3.5,0,3.3-2.9,5.6-6.3,5.7l-27.6,1.3h0M88.3,0h-9.7c-1.3,0-2.1,1-2.1,2.2v51c0,1.3,1,2.1,2.3,2.1h5.6c1.3,0,2.2-.8,2.3-2l.6-8.2.8-10.4,1.5-20.8.8-10.4v-1.4c.2-.8-.6-2.1-2.1-2.1"/>
</svg>